<?xml version="1.0" encoding="utf-8"?>
<!-- Generator: Adobe Illustrator 26.0.2, SVG Export Plug-In . SVG Version: 6.00 Build 0)  -->
<svg version="1.1" id="Layer_1" xmlns="http://www.w3.org/2000/svg" xmlns:xlink="http://www.w3.org/1999/xlink" x="0px" y="0px"
	 viewBox="0 0 612 792" style="enable-background:new 0 0 612 792;" xml:space="preserve">
<style type="text/css">
	.st0{fill:#EC008C;}
	.st1{fill:#FFFFFF;stroke:#000000;stroke-miterlimit:10;}
	.st2{fill:#FCB96B;}
	.st3{fill:#AB712A;}
	.st4{fill:#86C87F;}
	.st5{fill:#44B649;}
	.st6{fill:#66451B;}
	.st7{fill:#C69168;}
</style>
<path class="st0" d="M280.41,76.18L280.41,76.18L280.41,76.18c-0.49-0.38-17.23-16.75-37.7-26.23c-5.31-2.46-11.32-4.66-21.39-7.07
	c-33.92-8.12-63.14-15.11-95-7.68c-4.24,0.99-58.52,14.47-83.61,60.66c-10.01,18.42-14.14,39.76,8.2,155.74
	C70.89,355.37,79.2,364.25,77.14,404.05c-2.54,49.02-15.92,50.67-34.43,127.87c-19.68,82.09-38.13,159.1-1.64,200
	c22.69,25.43,57.21,26.36,113.11,27.87C273.17,763,297.87,718.15,405,720.44c87.09,1.87,117.78,32.52,142.62,9.84
	c31.45-28.72-10.28-84.67-14.75-209.84c-1.83-51.28,6.97-110.69,24.59-229.51c17.6-118.73,30.8-164.27,1.64-193.44
	c-27.57-27.59-77.88-25.41-96.72-24.59c-57.27,2.48-73.77,31.55-122.95,21.31C339.43,94.22,337.91,93.9,280.41,76.18z"/>
<path class="st1" d="M210.51-209.05"/>
<path class="st2" d="M293.84,432.11c-76.87,0-139.18,23.46-139.18,52.4l8.09,17.64l33.56,73.17l0.06,0.14
	c7.05,16.31,49.12,28.85,99.96,28.85s92.91-12.53,99.97-28.85l0.01-0.02l0.22-0.54l30.18-74.72l6.32-15.66
	C433.02,455.57,370.71,432.11,293.84,432.11z M186.81,475.53c0-16.8,47.91-30.43,107.01-30.43s107.01,13.62,107.01,30.43
	c0,3.13-1.66,6.14-4.73,8.98c-13.47,12.43-54.17,21.46-102.28,21.46s-88.81-9.03-102.28-21.46
	C188.47,481.67,186.81,478.66,186.81,475.53z"/>
<path class="st2" d="M419.55,481.77c0,3.74-1.95,7.35-5.56,10.75c-15.82,14.88-63.62,25.69-120.12,25.69s-104.3-10.81-120.12-25.69
	c-3.61-3.4-5.56-7.01-5.56-10.75c0-20.12,56.27-36.44,125.68-36.44S419.55,461.64,419.55,481.77z"/>
<path class="st2" d="M413.99,492.52c-15.82,14.88-63.62,25.69-120.12,25.69s-104.3-10.81-120.12-25.69H413.99z"/>
<path class="st3" d="M419.55,481.77c0,3.74-1.95,7.35-5.56,10.75c-15.82,14.88-63.62,25.69-120.12,25.69s-104.3-10.81-120.12-25.69
	c-3.61-3.4-5.56-7.01-5.56-10.75c0-20.12,56.27-36.44,125.68-36.44S419.55,461.64,419.55,481.77z"/>
<path class="st4" d="M457.34,315c0,30.59-15.35,55.38-34.3,55.38c-0.17,0-0.34,0-0.51-0.01v0.01h-56.83v95.29
	c0,12.81-32.59,23.2-72.78,23.2c-40.2,0-72.79-10.39-72.79-23.2V319.99c0-65.3,32.59-118.24,72.79-118.24
	c37.39,0,68.19,45.81,72.31,104.77h23.93c2.52-26.56,16.74-46.9,33.89-46.9C441.99,259.63,457.34,284.42,457.34,315z"/>
<path class="st4" d="M276.08,231.93c1.09,24.04,2.19,48.09,3.28,72.13"/>
<g>
	<g>
		<path class="st5" d="M228.11,234.78c3.63,5.77,8.13,11,13.35,15.39c1,0.84,2.57,1.05,3.54,0c0.85-0.93,1.07-2.64,0-3.54
			c-2.5-2.1-4.83-4.38-6.98-6.84c-2.14-2.45-3.78-4.67-5.59-7.54c-0.7-1.11-2.26-1.64-3.42-0.9
			C227.9,232.07,227.36,233.6,228.11,234.78L228.11,234.78z"/>
	</g>
</g>
<g>
	<g>
		<path class="st5" d="M209.96,281.48c3.82,1.12,7.64,2.23,11.45,3.35c1.25,0.37,2.78-0.44,3.08-1.75c0.3-1.34-0.4-2.68-1.75-3.08
			c-3.82-1.12-7.64-2.23-11.45-3.35c-1.25-0.37-2.78,0.44-3.08,1.75C207.91,279.74,208.62,281.08,209.96,281.48L209.96,281.48z"/>
	</g>
</g>
<g>
	<g>
		<path class="st5" d="M319.77,206.04c-2.37,3.16-3.61,7.2-3.53,11.14c0.03,1.31,1.13,2.56,2.5,2.5c1.33-0.06,2.53-1.1,2.5-2.5
			c-0.01-0.45,0-0.9,0.03-1.34c0.01-0.22,0.03-0.45,0.06-0.67c0.07-0.65-0.01,0,0,0c-0.09-0.02,0.53-2.32,0.59-2.53
			c0.11-0.34,0.21-0.9,0.43-1.18c-0.14,0.34-0.16,0.38-0.05,0.13c0.05-0.1,0.09-0.2,0.14-0.3c0.08-0.18,0.17-0.35,0.26-0.53
			c0.4-0.77,0.87-1.5,1.39-2.2c0.36-0.48,0.4-1.37,0.25-1.93c-0.16-0.58-0.61-1.21-1.15-1.49c-0.58-0.31-1.28-0.46-1.93-0.25
			C320.61,205.11,320.18,205.49,319.77,206.04L319.77,206.04z"/>
	</g>
</g>
<g>
	<g>
		<path class="st5" d="M333.46,244.27c4.37,0,8.74,0,13.11,0c1.31,0,2.56-1.15,2.5-2.5c-0.06-1.35-1.1-2.5-2.5-2.5
			c-4.37,0-8.74,0-13.11,0c-1.31,0-2.56,1.15-2.5,2.5C331.02,243.12,332.06,244.27,333.46,244.27L333.46,244.27z"/>
	</g>
</g>
<g>
	<g>
		<path class="st5" d="M417.84,251.61c0,6.01,0,12.02,0,18.03c0,1.35,1.15,2.5,2.5,2.5c1.36,0,2.5-1.14,2.5-2.5
			c0-6.01,0-12.02,0-18.03c0-1.35-1.15-2.5-2.5-2.5C418.99,249.11,417.84,250.25,417.84,251.61L417.84,251.61z"/>
	</g>
</g>
<g>
	<g>
		<path class="st5" d="M446.6,308.53c6.56-0.51,13.12-1.01,19.68-1.52c1.35-0.1,2.5-1.07,2.5-2.5c0-1.27-1.15-2.6-2.5-2.5
			c-6.56,0.51-13.12,1.01-19.68,1.52c-1.35,0.1-2.5,1.07-2.5,2.5C444.1,307.3,445.24,308.63,446.6,308.53L446.6,308.53z"/>
	</g>
</g>
<g>
	<g>
		<path class="st5" d="M400.82,302.28c-3.79-4.4-7.58-8.81-11.37-13.21c-0.86-0.99-2.67-0.94-3.54,0c-0.97,1.06-0.91,2.47,0,3.54
			c3.79,4.4,7.58,8.81,11.37,13.21c0.86,0.99,2.67,0.94,3.54,0C401.8,304.75,401.74,303.34,400.82,302.28L400.82,302.28z"/>
	</g>
</g>
<g>
	<g>
		<path class="st5" d="M430.18,350.83c3.28,0,6.56,0,9.84,0c1.31,0,2.56-1.15,2.5-2.5c-0.06-1.35-1.1-2.5-2.5-2.5
			c-3.28,0-6.56,0-9.84,0c-1.31,0-2.56,1.15-2.5,2.5C427.74,349.68,428.78,350.83,430.18,350.83L430.18,350.83z"/>
	</g>
</g>
<g>
	<g>
		<path class="st5" d="M374.31,366.49c3.28,3.28,6.56,6.56,9.84,9.84c0.93,0.93,2.62,0.99,3.54,0c0.92-1,0.99-2.55,0-3.54
			c-3.28-3.28-6.56-6.56-9.84-9.84c-0.93-0.93-2.62-0.99-3.54,0C373.4,363.95,373.33,365.5,374.31,366.49L374.31,366.49z"/>
	</g>
</g>
<g>
	<g>
		<path class="st5" d="M228.51,313.39c-7.64-0.63-15.29-1.27-22.93-1.9c-1.35-0.11-2.5,1.23-2.5,2.5c0,1.45,1.15,2.39,2.5,2.5
			c7.64,0.63,15.29,1.27,22.93,1.9c1.35,0.11,2.5-1.23,2.5-2.5C231.01,314.44,229.86,313.5,228.51,313.39L228.51,313.39z"/>
	</g>
</g>
<g>
	<g>
		<path class="st5" d="M279.6,269.42c-4-4.98-7.33-10.79-9.63-16.71c-0.49-1.26-1.68-2.13-3.08-1.75c-1.2,0.33-2.24,1.81-1.75,3.08
			c2.66,6.86,6.31,13.18,10.92,18.92c0.85,1.05,2.65,0.88,3.54,0C280.64,271.92,280.45,270.48,279.6,269.42L279.6,269.42z"/>
	</g>
</g>
<g>
	<g>
		<path class="st5" d="M284.96,223.11c-3.14-7.7-6.89-15.11-11.31-22.15c-1.71-2.72-6.04-0.21-4.32,2.52
			c4.19,6.66,7.84,13.67,10.81,20.96c0.51,1.25,1.66,2.13,3.08,1.75C284.4,225.86,285.47,224.37,284.96,223.11L284.96,223.11z"/>
	</g>
</g>
<g>
	<g>
		<path class="st5" d="M320.63,290.41c3.86-5.44,7.72-10.88,11.58-16.32c0.78-1.1,0.2-2.78-0.9-3.42c-1.25-0.73-2.64-0.21-3.42,0.9
			c-3.86,5.44-7.72,10.88-11.58,16.32c-0.78,1.1-0.2,2.78,0.9,3.42C318.46,292.04,319.85,291.51,320.63,290.41L320.63,290.41z"/>
	</g>
</g>
<g>
	<g>
		<path class="st5" d="M312.15,334.43c2.73,0,5.46,0,8.2,0c1.31,0,2.56-1.15,2.5-2.5c-0.06-1.35-1.1-2.5-2.5-2.5
			c-2.73,0-5.46,0-8.2,0c-1.31,0-2.56,1.15-2.5,2.5C309.71,333.29,310.75,334.43,312.15,334.43L312.15,334.43z"/>
	</g>
</g>
<g>
	<g>
		<path class="st5" d="M377.72,336.07c6.01,0,12.02,0,18.03,0c1.35,0,2.5-1.15,2.5-2.5c0-1.36-1.14-2.5-2.5-2.5
			c-6.01,0-12.02,0-18.03,0c-1.35,0-2.5,1.15-2.5,2.5C375.22,334.93,376.37,336.07,377.72,336.07L377.72,336.07z"/>
	</g>
</g>
<g>
	<g>
		<path class="st5" d="M273.68,312.28c-8.88-2.2-17.75-4.4-26.63-6.59c-3.12-0.77-4.46,4.05-1.33,4.82
			c8.88,2.2,17.75,4.4,26.63,6.59C275.47,317.88,276.8,313.06,273.68,312.28L273.68,312.28z"/>
	</g>
</g>
<g>
	<g>
		<path class="st5" d="M254.77,380.25c-6.56,0-13.11,0-19.67,0c-3.22,0-3.22,5,0,5c6.56,0,13.11,0,19.67,0
			C257.99,385.25,257.99,380.25,254.77,380.25L254.77,380.25z"/>
	</g>
</g>
<g>
	<g>
		<path class="st5" d="M298.16,393.25c1.64-6.01,3.28-12.02,4.92-18.03c0.36-1.3-0.44-2.72-1.75-3.08c-1.3-0.36-2.72,0.44-3.08,1.75
			c-1.64,6.01-3.28,12.02-4.92,18.03c-0.36,1.3,0.44,2.72,1.75,3.08C296.39,395.36,297.81,394.56,298.16,393.25L298.16,393.25z"/>
	</g>
</g>
<g>
	<g>
		<path class="st5" d="M335.1,396.73c4.37,0,8.74,0,13.11,0c1.31,0,2.56-1.15,2.5-2.5c-0.06-1.35-1.1-2.5-2.5-2.5
			c-4.37,0-8.74,0-13.11,0c-1.31,0-2.56,1.15-2.5,2.5C332.66,395.58,333.7,396.73,335.1,396.73L335.1,396.73z"/>
	</g>
</g>
<g>
	<g>
		<path class="st5" d="M354.77,431.16c8.2,0,16.39,0,24.59,0c3.22,0,3.22-5,0-5c-8.2,0-16.39,0-24.59,0
			C351.55,426.16,351.55,431.16,354.77,431.16L354.77,431.16z"/>
	</g>
</g>
<g>
	<g>
		<path class="st5" d="M338.25,456.65c2.19,2.19,4.37,4.37,6.56,6.56c0.93,0.93,2.62,0.99,3.54,0c0.92-1,0.99-2.55,0-3.54
			c-2.19-2.19-4.37-4.37-6.56-6.56c-0.93-0.93-2.62-0.99-3.54,0C337.33,454.12,337.26,455.66,338.25,456.65L338.25,456.65z"/>
	</g>
</g>
<g>
	<g>
		<path class="st5" d="M285.81,472.81c-3.79,4.4-7.58,8.81-11.37,13.21c-0.85,0.99-1.05,2.58,0,3.54c0.94,0.86,2.62,1.06,3.54,0
			c3.79-4.4,7.58-8.81,11.37-13.21c0.85-0.99,1.05-2.58,0-3.54C288.41,471.95,286.72,471.75,285.81,472.81L285.81,472.81z"/>
	</g>
</g>
<g>
	<g>
		<path class="st5" d="M228.54,439.27c-7.65,0-15.3,0-22.95,0c-3.22,0-3.22,5,0,5c7.65,0,15.3,0,22.95,0
			C231.76,444.27,231.76,439.27,228.54,439.27L228.54,439.27z"/>
	</g>
</g>
<g>
	<g>
		<path class="st5" d="M197.41,359.16c7.46-0.85,15-0.53,22.35,1.06c1.32,0.29,2.7-0.39,3.08-1.75c0.34-1.25-0.42-2.79-1.75-3.08
			c-7.78-1.69-15.77-2.14-23.68-1.24c-1.34,0.15-2.5,1.04-2.5,2.5C194.91,357.89,196.06,359.32,197.41,359.16L197.41,359.16z"/>
	</g>
</g>
<g>
	<g>
		<path class="st5" d="M199.07,409.52c6,0.64,12,1.28,18,1.92c1.34,0.14,2.5-1.25,2.5-2.5c0-1.47-1.15-2.36-2.5-2.5
			c-6-0.64-12-1.28-18-1.92c-1.34-0.14-2.5,1.25-2.5,2.5C196.57,408.49,197.72,409.37,199.07,409.52L199.07,409.52z"/>
	</g>
</g>
<g>
	<g>
		<path class="st5" d="M263.99,437.18c-2.23,4.35-4.47,8.69-6.7,13.04c-0.6,1.16-0.34,2.77,0.9,3.42c1.14,0.6,2.78,0.35,3.42-0.9
			c2.23-4.35,4.47-8.69,6.7-13.04c0.6-1.16,0.34-2.77-0.9-3.42C266.27,435.68,264.63,435.94,263.99,437.18L263.99,437.18z"/>
	</g>
</g>
<g>
	<g>
		<path class="st5" d="M351.36,292.39c5.47-4.37,10.94-8.73,16.41-13.1c1.06-0.84,0.88-2.66,0-3.54c-1.04-1.04-2.48-0.85-3.54,0
			c-5.47,4.37-10.94,8.73-16.41,13.1c-1.06,0.84-0.88,2.66,0,3.54C348.87,293.44,350.3,293.24,351.36,292.39L351.36,292.39z"/>
	</g>
</g>
<g>
	<g>
		<path class="st5" d="M341.12,391.28c7.62,2.3,15.23,4.6,22.85,6.9c3.09,0.93,4.41-3.89,1.33-4.82c-7.62-2.3-15.23-4.6-22.85-6.9
			C339.37,385.53,338.05,390.35,341.12,391.28L341.12,391.28z"/>
	</g>
</g>
<g>
	<g>
		<path class="st6" d="M184.51,481.92c2.18,1.11,4.35,2.22,6.53,3.33c0.6,0.31,1.26,0.43,1.93,0.25c0.58-0.16,1.21-0.61,1.49-1.15
			c0.6-1.14,0.35-2.79-0.9-3.42c-2.18-1.11-4.35-2.22-6.53-3.33c-0.6-0.31-1.26-0.43-1.93-0.25c-0.58,0.16-1.21,0.61-1.49,1.15
			C183.01,479.64,183.27,481.28,184.51,481.92L184.51,481.92z"/>
	</g>
</g>
<g>
	<g>
		<path class="st6" d="M216.94,487.8c0.55,0.55,1.09,1.09,1.64,1.64c0.23,0.24,0.49,0.42,0.8,0.52c0.3,0.16,0.62,0.23,0.96,0.22
			c0.34,0.01,0.67-0.06,0.96-0.22c0.31-0.1,0.58-0.27,0.8-0.52c0.13-0.17,0.26-0.34,0.39-0.51c0.23-0.39,0.34-0.81,0.34-1.26
			c-0.03-0.22-0.06-0.44-0.09-0.66c-0.12-0.42-0.33-0.79-0.64-1.1c-0.55-0.55-1.09-1.09-1.64-1.64c-0.23-0.24-0.49-0.42-0.8-0.52
			c-0.3-0.16-0.62-0.23-0.96-0.22c-0.34-0.01-0.67,0.06-0.96,0.22c-0.31,0.1-0.58,0.27-0.8,0.52c-0.13,0.17-0.26,0.34-0.39,0.51
			c-0.23,0.39-0.34,0.81-0.34,1.26c0.03,0.22,0.06,0.44,0.09,0.66C216.41,487.12,216.63,487.49,216.94,487.8L216.94,487.8z"/>
	</g>
</g>
<g>
	<g>
		<path class="st6" d="M199.03,481.98c3.22,0,3.22-5,0-5C195.82,476.98,195.81,481.98,199.03,481.98L199.03,481.98z"/>
	</g>
</g>
<g>
	<g>
		<path class="st6" d="M310.51,518.04c1.09,0,2.19,0,3.28,0c0.64,0,1.31-0.28,1.77-0.73c0.24-0.23,0.42-0.49,0.52-0.8
			c0.16-0.3,0.23-0.62,0.22-0.96c-0.03-0.65-0.24-1.32-0.73-1.77c-0.49-0.45-1.09-0.73-1.77-0.73c-1.09,0-2.19,0-3.28,0
			c-0.64,0-1.31,0.28-1.77,0.73c-0.24,0.23-0.42,0.49-0.52,0.8c-0.16,0.3-0.23,0.62-0.22,0.96c0.03,0.65,0.24,1.32,0.73,1.77
			C309.23,517.76,309.83,518.04,310.51,518.04L310.51,518.04z"/>
	</g>
</g>
<g>
	<g>
		<path class="st6" d="M329.86,512.85c1.18-0.91,2.47-1.66,3.84-2.25c-0.2,0.08-0.4,0.17-0.6,0.25c1.38-0.58,2.81-0.98,4.29-1.2
			c0.58-0.08,1.21-0.67,1.49-1.15c0.31-0.54,0.45-1.33,0.25-1.93c-0.2-0.6-0.57-1.19-1.15-1.49c-0.63-0.34-1.22-0.36-1.93-0.25
			c-3.14,0.46-6.21,1.76-8.72,3.69c-0.54,0.42-0.96,0.81-1.15,1.49c-0.16,0.6-0.09,1.4,0.25,1.93c0.34,0.53,0.86,1,1.49,1.15
			C328.54,513.24,329.34,513.25,329.86,512.85L329.86,512.85z"/>
	</g>
</g>
<g>
	<g>
		<path class="st6" d="M385.06,469.64c0,1.64,0,3.28,0,4.92c0,0.64,0.28,1.31,0.73,1.77c0.43,0.43,1.15,0.76,1.77,0.73
			c0.65-0.03,1.32-0.24,1.77-0.73c0.45-0.49,0.73-1.09,0.73-1.77c0-1.64,0-3.28,0-4.92c0-0.64-0.28-1.31-0.73-1.77
			c-0.43-0.43-1.15-0.76-1.77-0.73c-0.65,0.03-1.32,0.24-1.77,0.73C385.34,468.36,385.06,468.96,385.06,469.64L385.06,469.64z"/>
	</g>
</g>
<g>
	<g>
		<path class="st7" d="M244.24,489.95c1.31,4.22,3.76,8.09,7.1,10.99c0.99,0.86,2.58,1.04,3.54,0c0.86-0.94,1.05-2.62,0-3.54
			c-0.73-0.64-1.42-1.32-2.07-2.05c-0.16-0.18-0.32-0.37-0.47-0.55c-0.07-0.08-0.13-0.17-0.2-0.25c-0.2-0.24,0.32,0.42,0.04,0.06
			c-0.29-0.39-0.57-0.78-0.84-1.19c-0.52-0.79-0.98-1.61-1.39-2.46c-0.1-0.22-0.2-0.44-0.3-0.66c-0.19-0.42,0.14,0.37,0.03,0.08
			c-0.04-0.1-0.08-0.2-0.12-0.3c-0.19-0.48-0.35-0.96-0.5-1.45c-0.39-1.25-1.76-2.17-3.08-1.75
			C244.73,487.28,243.82,488.62,244.24,489.95L244.24,489.95z"/>
	</g>
</g>
<g>
	<g>
		<path class="st7" d="M357.67,509.5c2.19-1.09,4.37-2.19,6.56-3.28c0.54-0.27,0.99-0.93,1.15-1.49c0.16-0.6,0.09-1.4-0.25-1.93
			c-0.77-1.2-2.17-1.52-3.42-0.9c-2.19,1.09-4.37,2.19-6.56,3.28c-0.54,0.27-0.99,0.93-1.15,1.49c-0.16,0.6-0.09,1.4,0.25,1.93
			C355.02,509.8,356.42,510.13,357.67,509.5L357.67,509.5z"/>
	</g>
</g>
<g>
	<g>
		<path class="st7" d="M390.66,480.94c-0.21,0.19-0.42,0.38-0.64,0.57c-0.08,0.06-0.79,0.61-0.33,0.27
			c-0.46,0.34-0.93,0.66-1.42,0.96c-0.49,0.3-0.99,0.58-1.5,0.83c-0.26,0.13-0.52,0.24-0.77,0.36c-0.26,0.11-0.26,0.11,0.01,0
			c-0.13,0.05-0.27,0.11-0.4,0.16c-1.07,0.41-2.17,0.72-3.29,0.93c-0.28,0.05-0.56,0.1-0.84,0.14c0.63-0.09-0.29,0.02-0.4,0.03
			c-0.57,0.05-1.14,0.07-1.71,0.07c-1.31,0-2.56,1.15-2.5,2.5c0.06,1.36,1.1,2.5,2.5,2.5c5.48,0.01,10.79-2.09,14.84-5.78
			c0.97-0.88,0.96-2.65,0-3.54C393.16,479.99,391.7,480,390.66,480.94L390.66,480.94z"/>
	</g>
</g>
<g>
	<g>
		<path class="st7" d="M387.56,477.06c3.22,0,3.22-5,0-5C384.34,472.06,384.33,477.06,387.56,477.06L387.56,477.06z"/>
	</g>
</g>
</svg>
