<?xml version="1.0" encoding="utf-8"?>
<!-- Generator: Adobe Illustrator 26.0.2, SVG Export Plug-In . SVG Version: 6.00 Build 0)  -->
<svg version="1.1" xmlns="http://www.w3.org/2000/svg" xmlns:xlink="http://www.w3.org/1999/xlink" x="0px" y="0px"
	 viewBox="0 0 575 612" style="enable-background:new 0 0 575 612;" xml:space="preserve">
<style type="text/css">
	.st0{opacity:0.39;clip-path:url(#XMLID_00000065047337681725699970000006608378541861350841_);fill:url(#SVGID_1_);}
	.st1{clip-path:url(#XMLID_00000065047337681725699970000006608378541861350841_);}
	.st2{fill:url(#SVGID_00000142134705624639475000000008040738598434739627_);}
	.st3{fill:#CCD7C5;stroke:#262262;stroke-width:3;stroke-miterlimit:10;}
	.st4{fill:#EFD2CB;}
	.st5{fill:#262262;stroke:#262262;stroke-miterlimit:10;}
	.st6{fill:#EFD2CB;stroke:#262262;stroke-miterlimit:10;}
	.st7{fill:#EFD2CB;stroke:#262262;stroke-width:2;stroke-miterlimit:10;}
	.st8{fill:#EFD2CB;stroke:#262262;stroke-width:3;stroke-miterlimit:10;}
	.st9{fill:#A5A8D4;stroke:#262262;stroke-width:3;stroke-miterlimit:10;}
	.st10{fill:#7A7D9E;}
	.st11{fill:#7C7EA0;}
	.st12{fill:#262262;}
	.st13{fill:#9DA89B;}
	.st14{stroke:#262262;stroke-miterlimit:10;}
	.st15{fill:#D06580;stroke:#000000;stroke-miterlimit:10;}
	.st16{fill:#D06580;}
	.st17{fill:#262262;stroke:#262262;stroke-width:3;stroke-miterlimit:10;}
	.st18{fill:#D06580;stroke:#262262;stroke-width:3;stroke-miterlimit:10;}
	.st19{stroke:#262262;stroke-width:3;stroke-miterlimit:10;}
	.st20{fill:#F7941D;stroke:#262262;stroke-width:3;stroke-miterlimit:10;}
	.st21{fill:#FBB040;stroke:#262262;stroke-width:3;stroke-miterlimit:10;}
</style>
<g id="Layer_2">
	<g>
		<defs>
			<rect id="XMLID_00000103986411752703729140000008973900780618690469_" y="0" width="575" height="612"/>
		</defs>
		
			<linearGradient id="XMLID_00000119105131381638993060000006978889771308924089_" gradientUnits="userSpaceOnUse" x1="0" y1="306" x2="575" y2="306">
			<stop  offset="0" style="stop-color:#FBB040"/>
			<stop  offset="1" style="stop-color:#F7941D"/>
		</linearGradient>
		
			<use xlink:href="#XMLID_00000103986411752703729140000008973900780618690469_"  style="overflow:visible;fill:url(#XMLID_00000119105131381638993060000006978889771308924089_);"/>
		<clipPath id="XMLID_00000012469161686840545610000001530470822096830363_">
			<use xlink:href="#XMLID_00000103986411752703729140000008973900780618690469_"  style="overflow:visible;"/>
		</clipPath>
		<linearGradient id="SVGID_1_" gradientUnits="userSpaceOnUse" x1="115.0348" y1="344.6058" x2="532.4915" y2="344.6058">
			<stop  offset="0" style="stop-color:#EC008C"/>
			<stop  offset="0.0958" style="stop-color:#EC2E8B"/>
			<stop  offset="0.2818" style="stop-color:#ED5F8B"/>
			<stop  offset="0.5395" style="stop-color:#EF9182"/>
			<stop  offset="0.8557" style="stop-color:#F5CE5E"/>
			<stop  offset="1" style="stop-color:#F9ED32"/>
		</linearGradient>
		<path style="opacity:0.39;clip-path:url(#XMLID_00000012469161686840545610000001530470822096830363_);fill:url(#SVGID_1_);" d="
			M217.95,41.26c-33.45,8.99-53.97,14.5-66.03,33.33c-14.78,23.09,1.5,37.59-6.41,84.62c-7.93,47.15-28.68,58.65-19.23,80.13
			c9.33,21.19,38.63,30.68,57.69,32.05c25.75,1.86,45.68-10.15,46.79-7.69c1.21,2.65-23.53,13.27-40.38,26.28
			c-26.01,20.08-36.07,63.24-55.13,148.72c-19.38,86.9-28.69,130.85-10.26,155.13c10.27,13.53,23.59,20.09,33.97,24.36
			c74.42,30.6,327.27,78.87,367.95-8.97c47.29-102.12-223-321.51-192.95-353.85c11.87-12.77,55.37,20.07,72.44,2.56
			c17.54-17.99-21.86-59.41-55.13-172.44c-4.79-16.28-8.12-29.49-20.51-40.38C300.99,18.94,249.25,32.84,217.95,41.26z"/>
		<g style="clip-path:url(#XMLID_00000012469161686840545610000001530470822096830363_);">
			
				<linearGradient id="SVGID_00000036240621343221606730000018084796692626831774_" gradientUnits="userSpaceOnUse" x1="666.6667" y1="227.7949" x2="666.6667" y2="227.7949">
				<stop  offset="0" style="stop-color:#FBB040"/>
				<stop  offset="1" style="stop-color:#F7941D"/>
			</linearGradient>
			<path style="fill:url(#SVGID_00000036240621343221606730000018084796692626831774_);" d="M666.67,227.79"/>
		</g>
	</g>
	<path class="st3" d="M269.9,386.68"/>
	<g>
		<g>
			<path class="st4" d="M189.87,97.83c-0.43,2.18-0.85,4.36-1.28,6.53c-0.43,2.19-1.13,4.51,0.8,6.2c1.68,1.46,4.12,1.22,5.97,0.24
				c1.75-0.93,2.92-2.49,4.29-3.86c0.47-0.47,1-1,1.67-1.17c0.19-0.05,0.57-0.04,0.72,0.14c-0.06-0.07-0.15-0.14-0.15-0.25
				c0.02,0.39-0.08,0.79-0.1,1.18c-0.05,1.03,0.18,2.05,0.85,2.85c1.45,1.75,3.75,1.49,5.8,1.49c2.25,0,4.51,0.01,6.76,0.01
				c3.22,0.01,3.22-4.99,0-5c-1.94,0-3.89-0.01-5.83-0.01c-0.54,0-1.09,0-1.63,0c-0.39,0-1.06-0.14-1.4,0c-0.11,0-0.21,0-0.32-0.01
				c0.32,0.17,0.55,0.43,0.71,0.8c0.05-0.03,0.09-0.47,0.1-0.63c0.3-3.5-2.67-5.96-6.08-5.52c-1.76,0.22-3.25,1.24-4.5,2.45
				c-1.01,0.98-1.86,2.31-3.09,3.03c0.12-0.07-0.86,0.48-0.77,0.32c-0.03,0.05,0.16-0.29,0.3,0.22c0.43,1.56,0.44,0.25,0.54-0.22
				c0.09-0.47,0.18-0.93,0.27-1.4c0.4-2.02,0.79-4.05,1.19-6.07c0.26-1.32-0.38-2.7-1.75-3.08
				C191.72,95.75,190.13,96.5,189.87,97.83L189.87,97.83z"/>
		</g>
	</g>
</g>
<g id="Layer_1">
	<path class="st5" d="M327.91,54.24c-35.44-9.42-53.16-14.13-66.64-12.56c-35.33,4.14-76,32.78-85.71,69.87
		c-8.31,31.75,11,50.79-4.73,89.49c-5.17,12.73-10.45,18.5-7.62,26.08c5.18,13.86,31.04,16.5,72.35,20.28
		c7.66,0.7,24.54,2.09,46.89,2.37c39.15,0.5,38.26-3.12,81.63-3.34c16.4-0.08,21.04,0.41,29.07-2.42
		c17.58-6.2,35.18-22.6,36.61-41.04c0.93-12.01-5.47-18.6-13.33-32.84c-26.73-48.45-8.11-72.89-31.41-95.62
		C377.84,67.52,361.2,63.09,327.91,54.24z"/>
	<path class="st6" d="M372.57,140.2c0,12.72,0,25.43,0,38.15c0,4.32-0.43,8.56-1.25,12.68c-6.7,33.69-39.64,59.28-79.27,59.28
		c-39.63,0-72.57-25.59-79.27-59.28c-0.82-4.11-1.25-8.36-1.25-12.68c0-12.39,0-24.79,0-37.18c2.83-0.97,7.19-2.24,12.61-2.9
		c10.11-1.23,17.64,0.42,20.94,0.97c21.79,3.6,44.58-10.3,46.65-11.59c20.17-12.62,21.04-30.01,29.51-28.98
		c13.26,1.62,12.09,44.39,30.46,49.26C359.06,149.88,366.82,145.04,372.57,140.2z"/>
	<path class="st5" d="M234.9,168.54c-1.46,0.95,7.68,12.46,21.74,14.31c12.95,1.71,23.3-5.68,22.18-6.99
		c-0.88-1.02-8.32,2.23-20.17,0.74C244.45,174.81,236.13,167.74,234.9,168.54z"/>
	<path class="st5" d="M308.13,175.92c-1.05,1.39,11.4,9.07,25.24,5.96c12.75-2.86,20.01-13.38,18.52-14.22
		c-1.17-0.66-7.07,4.97-18.72,7.65C319.21,178.52,309.02,174.74,308.13,175.92z"/>
	<path class="st7" d="M280.31,194.29c-0.89,9.35,6.63,16.83,14.28,16.42c7.13-0.39,13.54-7.58,12.75-16.25"/>
	<path class="st6" d="M214.07,150.83c-1.97-0.36-14.11-2.4-22.15,5.27c-10.37,9.88-8.11,30.35,3.26,40.08
		c9.67,8.27,22.5,5.84,24.53,5.42"/>
	<path class="st6" d="M370.88,153.16c1.21-0.28,14.27-3.13,22.52,5.14c9.73,9.76,7.02,29.25-4.26,37.11
		c-8.56,5.96-18.98,3.07-20.79,2.54"/>
	<path class="st8" d="M326.99,287.02c-3.44,3.25-6.4,7.05-10.55,10.64c-1.16,1-2.4,1.98-3.77,2.93c-2.55,1.78-5.54,3.44-9.2,4.91
		c-4.09,1.63-20.98,8.36-35.61,0c-8.45-4.83-11.79-12.21-14.33-18.47h18l1.63-37.19h38.85l3.44,37.19H326.99z"/>
	<path class="st7" d="M316.71,300.58h-4.04c1.37-0.95,2.61-1.93,3.77-2.93L316.71,300.58z"/>
	<path class="st8" d="M358.37,287.02v50.22H245.09v-50.22h8.45c2.54,6.27,5.88,13.64,14.33,18.47c14.63,8.36,31.52,1.63,35.61,0
		c3.65-1.46,6.65-3.13,9.2-4.91c1.37-0.95,2.61-1.93,3.77-2.93c4.15-3.59,7.11-7.39,10.55-10.64H358.37z"/>
	<path class="st9" d="M525.22,588.06c-4.9,3.27-11.86-1.55-17-4.67c-102.67-61.94-297.61,68.72-348.8-0.92
		c-5.44-7.41-7.41-17.38-11.33-37.27c-27.89-141.56,72.79-280.74,97.92-271.13c3.74,1.44,5.34,5.98,7.53,11.34
		c2.54,6.27,5.88,13.64,14.33,18.47c14.63,8.36,31.52,1.63,35.61,0c3.65-1.46,6.65-3.13,9.2-4.91c1.37-0.95,2.61-1.93,3.77-2.93
		c4.15-3.59,7.11-7.39,10.55-10.64c1.9-1.82,3.95-3.46,6.43-4.82c23.43-12.86,57.13,15.38,68.79,25.16
		C490.06,379.37,549.48,571.88,525.22,588.06z"/>
	<path class="st10" d="M263.47,474.42c15.2,12.72,23.79,12.22,64.07,32.93c28.96,14.88,51.43,28.98,65.69,38.4
		c-56.79-13.87-113.57-27.74-170.36-41.6c-9.8-99.95-9.76-126.57-6.84-126.98C220.48,376.52,220.3,438.3,263.47,474.42z"/>
	<path class="st11" d="M432.38,451.22c14.66,31.57,33.68,51.96,48.18,64.62c-20.39-9.51-40.78-19.03-61.17-28.54
		c-9.53-75.93-9.77-93.54-7.97-94.45C413.8,391.65,418.1,420.46,432.38,451.22z"/>
	<path class="st9" d="M450.39,558.11c-29.64-1.16-52.42-7.08-67.48-12.16c-18.99-6.41-23.54-10.77-26.26-14.86
		c-12.95-19.46,1.04-47.21,2.2-49.37c2.59-4.87,8.2-15.41,17.65-16.34c6.29-0.62,11.28,3.65,14.34,5.25
		c22.74,11.87,32.64,7.46,72.23,17.82c8.41,2.2,20.66,5.73,35.42,11.18"/>
	<g>
		<g>
			<path class="st12" d="M316.17,150.33c1.55,0.9,3.05,1.88,4.49,2.95c0.17,0.13,0.34,0.25,0.51,0.38c0.26,0.2-0.04-0.02-0.13-0.1
				c0.08,0.07,0.17,0.13,0.25,0.2c0.35,0.28,0.7,0.56,1.04,0.85c0.71,0.59,1.4,1.21,2.07,1.84c0.96,0.89,2.6,1.02,3.54,0
				c0.89-0.97,1.02-2.58,0-3.54c-2.81-2.63-5.92-4.96-9.25-6.89c-1.13-0.66-2.79-0.3-3.42,0.9
				C314.64,148.1,314.96,149.63,316.17,150.33L316.17,150.33z"/>
		</g>
	</g>
	<g>
		<g>
			<path class="st12" d="M273.8,147.3c-3.48,0.99-6.97,1.99-10.45,2.98c-1.26,0.36-2.16,1.78-1.75,3.08
				c0.41,1.28,1.73,2.13,3.08,1.75c3.48-0.99,6.97-1.99,10.45-2.98c1.26-0.36,2.16-1.78,1.75-3.08
				C276.46,147.77,275.15,146.92,273.8,147.3L273.8,147.3z"/>
		</g>
	</g>
	<path class="st13" d="M867.95,378.44"/>
</g>
<g id="Layer_4">
	<path class="st14" d="M537.02,222.41"/>
	<path class="st15" d="M713.46,340.62"/>
	<polygon class="st16" points="277.68,250.83 312.09,248.15 312.07,275.98 	"/>
	<polygon class="st16" points="204.85,163.76 220.96,177.95 209.05,188.7 	"/>
	<polygon class="st16" points="384.9,163.97 385.63,182.24 367.98,183 	"/>
</g>
<g id="Layer_5">
	<path class="st17" d="M363.31,470.54c0,0.22-0.01,0.43-0.03,0.66c0,0.05,0,0.09-0.01,0.14l-0.99,3.45l-14.83,51.39
		c-0.42,13.72-19.84,24.75-43.71,24.75c-20.98,0-38.52-8.52-42.74-19.9l-0.52,0.3l-17.09-56.29l-1.12-3.71
		c-0.01-0.04-0.01-0.09-0.01-0.13c-0.02-0.22-0.03-0.43-0.03-0.66c0-12.69,27.11-22.97,60.55-22.97
		C336.21,447.57,363.31,457.85,363.31,470.54z"/>
	<ellipse class="st18" cx="303.96" cy="468.34" rx="48.2" ry="11.2"/>
	<line class="st19" x1="308.07" y1="461.86" x2="308.07" y2="368.09"/>
	
		<ellipse transform="matrix(0.9555 -0.2949 0.2949 0.9555 -100.261 100.0693)" class="st20" cx="281.66" cy="382.46" rx="22.02" ry="9.6"/>
	
		<ellipse transform="matrix(0.9068 -0.4216 0.4216 0.9068 -117.7956 155.0544)" class="st20" cx="291.72" cy="343.89" rx="8.48" ry="22.57"/>
	
		<ellipse transform="matrix(0.9555 -0.2949 0.2949 0.9555 -89.9624 113.136)" class="st21" cx="330.16" cy="354.87" rx="22.33" ry="9.64"/>
	<ellipse class="st20" cx="334.39" cy="372.24" rx="22.31" ry="10.21"/>
	<ellipse class="st20" cx="277.45" cy="365.8" rx="22.31" ry="9.1"/>
	
		<ellipse transform="matrix(0.7011 -0.713 0.713 0.7011 -150.5915 333.5644)" class="st20" cx="322.62" cy="346.42" rx="22.15" ry="8.22"/>
	
		<ellipse transform="matrix(0.1827 -0.9832 0.9832 0.1827 -85.2003 581.946)" class="st21" cx="307.42" cy="342.22" rx="22.3" ry="9.39"/>
	
		<ellipse transform="matrix(0.1827 -0.9832 0.9832 0.1827 -147.0948 613.9884)" class="st21" cx="295.74" cy="395.47" rx="22.3" ry="9.5"/>
	
		<ellipse transform="matrix(0.9799 -0.1992 0.1992 0.9799 -72.2724 71.7645)" class="st21" cx="320.43" cy="394.97" rx="11.68" ry="22.3"/>
	
		<ellipse transform="matrix(0.5301 -0.8479 0.8479 0.5301 -167.785 460.5724)" class="st20" cx="331.65" cy="381.67" rx="9.53" ry="22.08"/>
	<ellipse class="st18" cx="306.95" cy="369.89" rx="7.74" ry="7.86"/>
	<g>
		<g>
			<path class="st12" d="M202.81,165.01c5.58,3.33,10.54,7.56,14.74,12.51c1.04,1.23,2.8-0.55,1.77-1.77
				c-4.33-5.11-9.5-9.47-15.25-12.9C202.69,162.03,201.43,164.19,202.81,165.01L202.81,165.01z"/>
		</g>
	</g>
	<g>
		<g>
			<path class="st12" d="M383.95,166.4c-5.03,3.59-9.63,7.75-13.68,12.43c-1.05,1.21,0.71,2.99,1.77,1.77
				c3.9-4.51,8.32-8.57,13.17-12.04c0.55-0.39,0.81-1.09,0.45-1.71C385.34,166.31,384.5,166.01,383.95,166.4L383.95,166.4z"/>
		</g>
	</g>
	<g>
		<g>
			<path class="st12" d="M211.66,150.37c7.34-7.13,14.24-14.69,20.66-22.66c0.99-1.23-0.59-2.92-1.77-1.77
				c-7.66,7.52-18.13,11.94-24.15,21.12c-0.7,1.07,0.67,2.32,1.71,1.71c5.3-3.08,9.29-7.93,11.37-13.68
				c0.46-1.27-1.23-1.96-2.09-1.22c-4.75,4.09-7.97,9.79-9.02,15.98c-0.19,1.15,1.15,2.19,2.09,1.22
				c6.1-6.39,11.95-13.01,17.52-19.87c-0.65-0.5-1.31-1.01-1.96-1.51c-3.68,6.78-9.4,12.19-16.35,15.52
				c-0.7,0.34-0.82,1.46-0.25,1.96c3.58,3.18,8.6,1.07,11.18-2.28c2.74-3.56,3.95-9.62,8.71-11.11c-0.41-0.7-0.81-1.39-1.22-2.09
				c-3.15,3.7-6.3,7.4-9.44,11.1c-1.72,2.02-5.95,7.96-8.99,4.5c-0.41,0.7-0.81,1.39-1.22,2.09c6.93,1.16,12.13-4.26,17.04-8.26
				c6.07-4.95,13.1-8.59,20.01-12.2c-0.5-0.65-1.01-1.31-1.51-1.96c-3.86,3.29-7.72,6.58-11.58,9.86
				c-3.66,3.12-7.22,6.57-11.16,9.33c-1.64,1.14-3.49,2.19-5.51,2.37c-0.26,0.02-0.52,0.03-0.78,0.02
				c-0.39-0.12-0.49-0.09-0.31,0.11c0.22-0.44,1.23-0.95,1.63-1.25c1.06-0.8,2.11-1.6,3.17-2.4c4.1-3.1,8.19-6.2,12.29-9.3
				c-0.5-0.65-1.01-1.31-1.51-1.96c-3.13,2.58-5.04,6.17-7.67,9.19c-2.44,2.78-6.23,5.29-10.01,3.75c0.18,0.7,0.37,1.39,0.55,2.09
				c8.84-7.77,16.22-17.13,21.72-27.54c0.75-1.42-1.41-2.69-2.16-1.26c-5.41,10.23-12.64,19.38-21.33,27.03
				c-0.78,0.69-0.24,1.77,0.55,2.09c4.05,1.65,8.43-0.46,11.38-3.28c3.28-3.13,5.2-7.4,8.73-10.31c1.08-0.89-0.38-2.82-1.51-1.96
				c-3.83,2.9-7.66,5.8-11.49,8.7c-1.89,1.43-3.81,2.83-5.68,4.3c-1.29,1.02-2.1,2.98-0.34,4.05c1.44,0.88,3.7,0.44,5.2-0.04
				c1.83-0.58,3.49-1.58,5.02-2.72c3.57-2.66,6.87-5.72,10.26-8.61c4.11-3.5,8.22-7,12.33-10.5c1.12-0.96-0.31-2.59-1.51-1.96
				c-6.49,3.39-13.02,6.8-18.85,11.27c-2.6,1.99-4.97,4.28-7.65,6.17c-2.52,1.78-5.46,3.3-8.63,2.77c-1.23-0.21-2.08,1.11-1.22,2.09
				c1.31,1.5,3.34,1.9,5.24,1.52c2.26-0.45,4-2.2,5.45-3.87c3.79-4.39,7.52-8.83,11.28-13.25c0.76-0.89,0.06-2.49-1.22-2.09
				c-4.22,1.32-6.19,5.28-8.12,8.91c-0.97,1.81-2.06,3.8-3.82,4.96c-1.6,1.05-3.97,1.55-5.52,0.16c-0.08,0.65-0.17,1.31-0.25,1.96
				c7.31-3.5,13.38-9.3,17.25-16.42c0.65-1.19-1.03-2.66-1.96-1.51c-5.57,6.86-11.41,13.48-17.52,19.87
				c0.7,0.41,1.39,0.81,2.09,1.22c0.99-5.81,3.92-11.02,8.38-14.87c-0.7-0.41-1.39-0.81-2.09-1.22c-1.86,5.13-5.51,9.44-10.23,12.19
				c0.57,0.57,1.14,1.14,1.71,1.71c5.86-8.94,16.29-13.28,23.76-20.61c-0.59-0.59-1.18-1.18-1.77-1.77
				c-6.42,7.96-13.32,15.53-20.66,22.66C208.74,149.73,210.51,151.5,211.66,150.37L211.66,150.37z"/>
		</g>
	</g>
	<path class="st8" d="M394.07,506.12c0,15.76-15.98,28.53-35.69,28.53c-19.72,0-35.7-12.77-35.7-28.53
		c0-14.07,12.76-25.77,29.54-28.09c-1.69-5.83-0.66-11.23,2.97-13.32c4.75-2.75,12.17,1.2,16.56,8.81c1.37,2.37,2.28,4.82,2.74,7.15
		C386.11,485.37,394.07,495,394.07,506.12z"/>
	<g>
		<g>
			<path class="st12" d="M235.06,104.87c-3.37,0.3-6.7,0.08-9.99-0.73c0.37,0.21,0.74,0.43,1.1,0.64c-0.35-0.4-0.58-1.32-0.69-2.14
				c-0.1-0.74-0.17-1.9-0.29-2.79c-0.32-2.34-1.28-4.62-3.52-5.72c-2.54-1.26-5.47-0.46-7.78,0.93c-1.96,1.18-3.82,3.49-6.29,3.3
				c0.83,0.83,1.67,1.67,2.5,2.5c-0.2-3.81-0.18-7.62,0.06-11.43c0.2-3.21-4.8-3.2-5,0c-0.23,3.81-0.25,7.62-0.06,11.43
				c0.07,1.43,1.09,2.39,2.5,2.5c3.7,0.3,6.05-2.37,8.98-4.08c0.77-0.45,2.03-1.14,2.92-0.68c0.56,0.29,0.73,1.48,0.81,2.2
				c0.3,2.54,0.26,6.4,2.83,7.91c0.81,0.47,1.97,0.58,2.88,0.74c0.98,0.17,1.98,0.31,2.98,0.41c2.02,0.2,4.04,0.19,6.06,0.01
				c1.35-0.12,2.5-1.06,2.5-2.5C237.56,106.11,236.41,104.75,235.06,104.87L235.06,104.87z"/>
		</g>
	</g>
	<g>
		<g>
			<path class="st12" d="M384.56,95.15c0.05,0.88,0.1,1.77,0.06,2.65c-0.01,0.18-0.02,0.35-0.03,0.53
				c-0.01,0.12-0.02,0.23-0.03,0.35c-0.03,0.28-0.03,0.23,0.02-0.15c0.05,0.08-0.07,0.4-0.1,0.51c-0.05,0.23-0.11,0.45-0.18,0.67
				c-0.03,0.11-0.07,0.22-0.11,0.33c-0.08,0.21-0.08,0.22,0,0.01c0.08-0.19,0.08-0.2,0-0.02c-0.04,0.09-0.09,0.17-0.14,0.26
				c-0.07,0.12-0.31,0.36-0.32,0.5c0.07-0.09,0.14-0.18,0.21-0.27c-0.06,0.08-0.13,0.15-0.19,0.22c-0.13,0.15-0.28,0.28-0.42,0.41
				c-0.36,0.35,0.47-0.29,0.04-0.03c-0.17,0.1-0.33,0.2-0.5,0.29c-0.41,0.24,0.57-0.19,0-0.01c-0.14,0.05-0.35,0.05-0.48,0.12
				c0.43-0.05,0.52-0.06,0.25-0.04c-0.09,0-0.19,0-0.28,0c-0.45,0.02,0.56,0.17,0.1,0.01c-0.05-0.02-0.63-0.17-0.62-0.2
				c0.32,0.14,0.4,0.17,0.22,0.09c-0.07-0.03-0.15-0.07-0.22-0.1c-0.2-0.09-0.4-0.18-0.59-0.27c-0.49-0.21-0.96-0.42-1.48-0.53
				c-1.1-0.21-2.25-0.08-3.24,0.47c-1.21,0.67-1.79,1.8-1.93,3.13c-0.14,1.31,1.25,2.56,2.5,2.5c1.47-0.07,2.36-1.1,2.5-2.5
				c0.01,0.3-0.07,0.57-0.22,0.83c0.13-0.21,0.07-0.13-0.19,0.24c0.18-0.17,0.11-0.11-0.24,0.18c0.16-0.09,0.13-0.08-0.09,0.02
				c-0.47,0.19,0.09,0.01,0.17-0.02c-0.46,0.05-0.56,0.07-0.29,0.05c0.08,0,0.16,0,0.25,0.01c-0.14-0.02-0.28-0.04-0.42-0.05
				c0.11,0.02,0.21,0.05,0.31,0.08c0.1,0.03,0.2,0.07,0.31,0.11c-0.35-0.15-0.4-0.17-0.15-0.06c0.49,0.23,0.99,0.46,1.49,0.65
				c1.78,0.67,3.89,0.36,5.44-0.73c1.63-1.15,2.77-2.75,3.28-4.69c0.48-1.81,0.43-3.71,0.33-5.56c-0.07-1.3-1.1-2.56-2.5-2.5
				C385.77,92.7,384.48,93.75,384.56,95.15L384.56,95.15z"/>
		</g>
	</g>
	<g>
		<g>
			<path class="st12" d="M254.49,100.17c1.07,0,2.14,0,3.21,0c0.64,0,1.31-0.28,1.77-0.73c0.24-0.23,0.42-0.49,0.52-0.8
				c0.16-0.3,0.23-0.62,0.22-0.96c-0.03-0.65-0.24-1.32-0.73-1.77c-0.49-0.45-1.09-0.73-1.77-0.73c-1.07,0-2.14,0-3.21,0
				c-0.64,0-1.31,0.28-1.77,0.73c-0.24,0.23-0.42,0.49-0.52,0.8c-0.16,0.3-0.23,0.62-0.22,0.96c0.03,0.65,0.24,1.32,0.73,1.77
				C253.21,99.88,253.81,100.17,254.49,100.17L254.49,100.17z"/>
		</g>
	</g>
	<g>
		<g>
			<path class="st12" d="M211.99,94.53c3.22,0,3.22-5,0-5C208.77,89.53,208.76,94.53,211.99,94.53L211.99,94.53z"/>
		</g>
	</g>
	<g>
		<g>
			<path class="st4" d="M203.86,89.66c-3.43,4.09-5.92,8.82-7.22,14.01c-0.51,2.02,1.78,4.05,3.67,2.82c4.49-2.9,8.97-5.8,13.46-8.7
				c-1.14-0.3-2.28-0.6-3.42-0.9c0.69,1.03,0.5,2.42,0.55,3.93c0.07,1.84,0.42,3.69,1.8,5.03c1.82,1.78,4.48,1.53,6.81,1.51
				c2.62-0.01,5.24-0.03,7.86-0.04c3.22-0.02,3.22-5.02,0-5c-2.29,0.01-4.59,0.02-6.88,0.04c-1.11,0.01-2.23,0.04-3.34,0.02
				c-0.33-0.01-0.62-0.03-0.93-0.1c0.04,0.01-0.22-0.27-0.08-0.05c-0.16-0.27-0.19-0.56-0.23-1.11c-0.04-0.71-0.02-1.42-0.05-2.14
				c-0.06-1.61-0.29-3.25-1.2-4.62c-0.73-1.08-2.23-1.67-3.42-0.9c-4.49,2.9-8.97,5.8-13.46,8.7c1.22,0.94,2.45,1.88,3.67,2.82
				c1.09-4.32,3.07-8.38,5.94-11.8c0.87-1.03,1.01-2.52,0-3.54C206.5,88.77,204.73,88.62,203.86,89.66L203.86,89.66z"/>
		</g>
	</g>
	<g>
		<g>
			<path class="st4" d="M382.59,95.13c-0.32-0.4,0.23,0.33,0.29,0.4c0.17,0.25,0.34,0.5,0.5,0.75c0.32,0.51,0.62,1.04,0.89,1.57
				c0.14,0.27,0.26,0.54,0.39,0.82c0.12,0.27,0.12,0.28,0.01,0.03c0.06,0.14,0.11,0.28,0.16,0.42c0.19,0.49,0.35,0.99,0.5,1.5
				c0.17,0.58,0.3,1.17,0.41,1.76c0.02,0.1,0.16,1.03,0.08,0.45c0.04,0.3,0.07,0.6,0.09,0.9c0.02,0.23,0.03,0.45,0.04,0.68
				c0.01,0.14,0.01,0.28,0,0.43c-0.02,0.3-0.01,0.29,0.02-0.03c-0.08,0.28-0.07,0.27,0.03-0.02c0.09-0.16,0.21-0.3,0.37-0.39
				c0.2-0.12,0.41-0.17,0.64-0.16c-0.27-0.01-0.23,0.01,0.15,0.06c-0.18,0.05-0.56-0.15-0.73-0.21c0.58,0.19-0.22-0.11-0.34-0.17
				c-0.42-0.21-0.82-0.45-1.24-0.65c-1.21-0.58-2.5-0.91-3.86-0.92c-2.44-0.02-4.89,0.97-6.58,2.74c-0.9,0.95-1.01,2.61,0,3.54
				c0.98,0.9,2.57,1.01,3.54,0c0.13-0.14,0.27-0.27,0.41-0.4c0.09-0.09,0.37-0.26-0.06,0.03c0.08-0.05,0.16-0.11,0.24-0.16
				c0.16-0.11,0.32-0.2,0.49-0.29c0.08-0.05,0.17-0.09,0.26-0.13c0.27-0.14,0.11-0.02-0.07,0.03c0.4-0.11,0.8-0.23,1.2-0.33
				c0.29-0.07-0.19,0.02-0.19,0.02c0.08-0.04,0.31-0.03,0.38-0.03c0.22-0.01,0.45-0.01,0.67,0c0.02,0,0.29,0.02,0.29,0.02
				c0,0.02-0.49-0.09-0.19-0.02c0.22,0.05,0.44,0.09,0.65,0.15c0.18,0.05,0.36,0.12,0.54,0.18c-0.47-0.17-0.01,0.02,0.18,0.12
				c0.92,0.49,1.88,1.04,2.9,1.27c1.41,0.32,2.78,0.11,3.9-0.84c1.07-0.91,1.43-2.35,1.41-3.71c-0.05-2.12-0.45-4.3-1.15-6.3
				c-0.86-2.44-2.09-4.6-3.69-6.62c-0.81-1.03-2.7-0.91-3.54,0C381.58,92.69,381.72,94.03,382.59,95.13L382.59,95.13z"/>
		</g>
	</g>
</g>
</svg>
