<?xml version="1.0" encoding="utf-8"?>
<!-- Generator: Adobe Illustrator 26.0.2, SVG Export Plug-In . SVG Version: 6.00 Build 0)  -->
<svg version="1.1" xmlns="http://www.w3.org/2000/svg" xmlns:xlink="http://www.w3.org/1999/xlink" x="0px" y="0px"
	 viewBox="0 0 792 612" style="enable-background:new 0 0 792 612;" xml:space="preserve">
<style type="text/css">
	
		.st0{clip-path:url(#XMLID_00000030459453768033349860000003430699512182636479_);fill:#FBB040;stroke:#2B3990;stroke-miterlimit:10;}
	.st1{display:none;}
	.st2{fill:url(#SVGID_1_);stroke:url(#SVGID_00000007391772082459788910000010989456763695137945_);stroke-miterlimit:10;}
	.st3{fill:#FFFFFF;stroke:#FFFFFF;stroke-miterlimit:10;}
	.st4{fill:#F7B3D1;stroke:#FFFFFF;stroke-miterlimit:10;}
	.st5{fill:#3F308C;stroke:#3F308C;stroke-miterlimit:10;}
	.st6{fill:#3F308C;stroke:#662D91;stroke-miterlimit:10;}
	.st7{opacity:0.46;fill:url(#SVGID_00000093898470757175584680000011229461311829724563_);}
	.st8{fill:#3F308C;}
	.st9{opacity:0.46;fill:url(#SVGID_00000039108018998250825090000000712725719019882625_);}
	.st10{fill:#3F308C;stroke:#FFFFFF;stroke-miterlimit:10;}
</style>
<g id="Layer_3">
	<g>
		<defs>
			<rect id="XMLID_00000058566304977169074500000011318296748332647563_" width="792" height="612"/>
		</defs>
		
			<use xlink:href="#XMLID_00000058566304977169074500000011318296748332647563_"  style="overflow:visible;opacity:0.89;fill:#FBB040;"/>
		<clipPath id="XMLID_00000157279373927574905550000017098585975467441326_">
			<use xlink:href="#XMLID_00000058566304977169074500000011318296748332647563_"  style="overflow:visible;opacity:0.89;"/>
		</clipPath>
		
			<path style="clip-path:url(#XMLID_00000157279373927574905550000017098585975467441326_);fill:#FBB040;stroke:#2B3990;stroke-miterlimit:10;" d="
			M-45.94,0.78c152.28,132.52,174.21,211.55,165.72,259.34c-10.19,57.38-64.76,72.87-69.87,147.23
			C46.35,459.12,68,521.52,108.17,557.11c68.47,60.66,157.94,14.37,176.57,51.18c9.35,18.49,0.87,57.97-91.11,152.99"/>
		
			<path style="clip-path:url(#XMLID_00000157279373927574905550000017098585975467441326_);fill:#FBB040;stroke:#2B3990;stroke-miterlimit:10;" d="
			M897.91,123.9c-69.02,189.7-134.91,238.54-182.57,247.77c-57.21,11.09-91.26-34.29-162.5-12.37
			c-49.6,15.26-100.07,57.87-118.86,108.14c-32.04,85.68,43.28,152.58,15.61,183.18c-13.9,15.37-53.8,21.62-175.5-30.12"/>
		
			<path style="clip-path:url(#XMLID_00000157279373927574905550000017098585975467441326_);fill:#FBB040;stroke:#2B3990;stroke-miterlimit:10;" d="
			M577.84-103.15c-77.31,194.84-56.33,274.12-22.45,310.42c40.67,43.57,102.12,27.57,146.94,88.38
			c31.21,42.34,43.55,107.26,23.49,159.2c-34.19,88.53-146.13,96.9-144.55,138.35c0.79,20.81,30.21,50.01,170.7,81.93"/>
		
			<path style="clip-path:url(#XMLID_00000157279373927574905550000017098585975467441326_);fill:#FBB040;stroke:#2B3990;stroke-miterlimit:10;" d="
			M606.1-84.66c74.62,187.57,57.89,267.86,28.44,306.45c-35.35,46.33-90.96,35.09-129.58,98.83
			c-26.89,44.38-36.24,109.77-16.85,159.81c33.06,85.3,133.8,85.15,133.48,126.41c-0.16,20.72-25.79,51.93-151.09,94.23"/>
		
			<use xlink:href="#XMLID_00000058566304977169074500000011318296748332647563_"  style="overflow:visible;opacity:0.89;fill:none;stroke:#2B3990;stroke-miterlimit:10;"/>
	</g>
</g>
<g id="Layer_1" class="st1">
	<linearGradient id="SVGID_1_" gradientUnits="userSpaceOnUse" x1="401" y1="557.5" x2="401" y2="54.5">
		<stop  offset="0" style="stop-color:#FFF33B"/>
		<stop  offset="0.0571" style="stop-color:#F6E052"/>
		<stop  offset="0.4107" style="stop-color:#AE8D83"/>
		<stop  offset="0.6959" style="stop-color:#855A8D"/>
		<stop  offset="0.8986" style="stop-color:#6F3A8F"/>
		<stop  offset="1" style="stop-color:#662D91"/>
	</linearGradient>
	
		<linearGradient id="SVGID_00000169530657603900998750000004240745823845806210_" gradientUnits="userSpaceOnUse" x1="592.1579" y1="114.8421" x2="209.8421" y2="497.1579">
		<stop  offset="0" style="stop-color:#2484C6"/>
		<stop  offset="0" style="stop-color:#2484C6;stop-opacity:0"/>
	</linearGradient>
	
		<ellipse style="fill:url(#SVGID_1_);stroke:url(#SVGID_00000169530657603900998750000004240745823845806210_);stroke-miterlimit:10;" cx="401" cy="306" rx="287" ry="251.5"/>
</g>
<g id="Layer_2">
	<path class="st3" d="M180.88,100.02c-10.87,17.18-15.76,34.74-21.49,55.28c-8.78,31.5-9.98,55.74-10.49,125.59
		c-0.72,96.93,1.37,80.09,0,103.17c-4.47,75.44-18.06,109.01,3.5,128.96c11.88,10.99,26.99,10.95,43.14,12.34
		c122.3,10.47,201.43,93.67,223.88,70.65c6.86-7.03,5.41-20.89,4.66-28.03c-2.42-23.21-18.76-28.53-17.49-42.61
		c1.5-16.7,26.1-27.11,54.8-39.25c29.75-12.58,53.44-22.61,64.13-13.46c17.63,15.1-19.02,66.21-5.83,76.25
		c13.16,10.03,74.26-22.19,101.44-76.25c8.72-17.35,17.25-43.51-2.33-155.87c-20.24-116.12-31.27-175.14-76.22-222.67
		c-10.71-11.32-38.89-40.48-85.86-58.79C357.1-3.52,226.78,27.42,180.88,100.02z"/>
	<path class="st4" d="M520.11,106.27l25.35,193.67c6.27,94.27-52.94,177-137.03,187.95c-84.09,10.95-162.62-53.84-180.82-146.56
		c-0.85-4.33-1.57-8.71-2.15-13.15c-6.17-47.13-12.34-94.26-18.51-141.39c-1.7-13.02-3.41-26.04-5.11-39.07
		C307.92,133.89,414.02,120.08,520.11,106.27z"/>
	<path class="st5" d="M363.55,325.7c2.04-2.97-10.01-14.69-25.23-20.26c-23.6-8.64-45.74,0.81-57.21,5.71
		c-4.19,1.79-5.88,2.97-5.58,3.81c0.82,2.39,16.61,0.13,33.59,0.86C342.04,317.26,361.17,329.17,363.55,325.7z"/>
	<ellipse class="st5" cx="459.77" cy="306.18" rx="16.72" ry="16.67"/>
	<path class="st6" d="M513.86,273.22c0.21-3.85-14.82-10.1-29.46-8.85c-22.7,1.94-35.72,21.17-42.47,31.13
		c-2.47,3.64-3.24,5.56-2.61,6.27c1.77,2,13.17-7.27,26.92-14.1C492.9,274.42,513.62,277.71,513.86,273.22z"/>
	<path class="st5" d="M363.45,274.74c2-2.24-5.4-13.29-16.13-19.58c-16.64-9.76-34.88-4.33-44.34-1.52
		c-3.46,1.03-4.91,1.82-4.82,2.56c0.26,2.07,12.61,1.92,25.4,4.39C348.37,265.37,361.12,277.35,363.45,274.74z"/>
	<path class="st5" d="M418.07,262.45c-2.15-1.55,3.43-12.66,12.73-20.31c14.42-11.86,32.23-10.83,41.45-10.3
		c3.37,0.2,4.84,0.59,4.84,1.25c0.01,1.86-11.6,4.23-23.31,8.96C431.08,251.25,420.58,264.26,418.07,262.45z"/>
	
		<radialGradient id="SVGID_00000142884452930623440100000013424956848155504256_" cx="260.3263" cy="357.7512" r="23.2537" gradientTransform="matrix(2.026 0 0 1.8864 -229.2475 -324.1673)" gradientUnits="userSpaceOnUse">
		<stop  offset="2.131116e-08" style="stop-color:#EC008C"/>
		<stop  offset="0.3034" style="stop-color:#ED0C87;stop-opacity:0.6966"/>
		<stop  offset="0.8369" style="stop-color:#ED247E;stop-opacity:0.1631"/>
		<stop  offset="1" style="stop-color:#EE2A7B;stop-opacity:0"/>
	</radialGradient>
	
		<ellipse style="opacity:0.46;fill:url(#SVGID_00000142884452930623440100000013424956848155504256_);" cx="298.16" cy="350.7" rx="50.55" ry="40.41"/>
	<g>
		<g>
			<path class="st8" d="M402.96,304.43c6.59,10.8,13.18,21.6,19.77,32.4c3.01,4.94,6.28,9.81,8.72,15.07
				c2.04,4.39,3.41,9.4,2.34,14.22c-0.99,4.45-3.77,8.7-8.37,9.92c-2.33,0.62-1.34,4.24,1,3.62c4.7-1.24,8.12-4.9,9.95-9.3
				c1.97-4.74,1.9-9.91,0.47-14.79c-1.72-5.91-5.09-11.17-8.26-16.37c-3.47-5.68-6.94-11.37-10.4-17.05
				c-3.99-6.54-7.98-13.07-11.97-19.61C404.94,300.48,401.69,302.36,402.96,304.43L402.96,304.43z"/>
		</g>
	</g>
	<g>
		<g>
			<path class="st8" d="M386.77,391.61c3.83,12.14,14.68,21.48,27.08,24.05c3.55,0.74,7.19,0.94,10.8,0.51
				c1.01-0.12,1.88-0.77,1.88-1.88c0-0.92-0.86-2-1.88-1.88c-14.66,1.78-29.79-7.64-34.27-21.81
				C389.66,388.32,386.04,389.3,386.77,391.61L386.77,391.61z"/>
		</g>
	</g>
	
		<radialGradient id="SVGID_00000048462685667864116020000013312342590214213010_" cx="365.0479" cy="343.352" r="23.2537" gradientTransform="matrix(2.026 0 0 1.8864 -229.2475 -324.1673)" gradientUnits="userSpaceOnUse">
		<stop  offset="2.131116e-08" style="stop-color:#EC008C"/>
		<stop  offset="0.3034" style="stop-color:#ED0C87;stop-opacity:0.6966"/>
		<stop  offset="0.8369" style="stop-color:#ED247E;stop-opacity:0.1631"/>
		<stop  offset="1" style="stop-color:#EE2A7B;stop-opacity:0"/>
	</radialGradient>
	
		<ellipse style="opacity:0.46;fill:url(#SVGID_00000048462685667864116020000013312342590214213010_);" cx="510.32" cy="323.53" rx="50.55" ry="40.41"/>
	<path class="st10" d="M362.05,148.38c0.9,10.36,1.43,33.79-12.8,55.31c-25.06,37.9-81.78,48.54-91.02,35.46
		c-11.2-15.86,44.13-71.15,42.67-72.33c-1.23-0.99-47.84,31.38-62.58,76.59c-42.02,128.98,194.53,303.83,170.66,331.89
		c-8.22,9.66-42.03-4.31-79.64-19.86c-60.65-25.07-80.09-52.09-125.15-51.06c-10.87,0.25-17.89,2-25.6-2.84
		c-21.18-13.29-14.59-55.73-11.38-90.77c11.87-129.6-23.86-143.41,2.84-231.19c10.35-34.03,18.36-60.35,42.67-85.1
		c58.95-60.03,150.08-53.11,174.93-51.06c30.34,2.5,82.78,6.82,126.57,43.97c41.57,35.25,54.73,95.36,81.06,215.58
		c12.68,57.9,27.02,141.81,27.02,141.83l0,0c-53.63,74.27-71.68,85.66-78.22,82.26c-8.25-4.29,2.04-32.03,4.27-92.19
		c0.95-25.82-0.08-44.15-1.42-68.08c-2.05-36.48-7.54-88.29-22.75-151.76"/>
</g>
</svg>
