<?xml version="1.0" encoding="utf-8"?>
<!-- Generator: Adobe Illustrator 26.0.2, SVG Export Plug-In . SVG Version: 6.00 Build 0)  -->
<svg version="1.1" xmlns="http://www.w3.org/2000/svg" xmlns:xlink="http://www.w3.org/1999/xlink" x="0px" y="0px"
	 viewBox="0 0 621.45 546.5" style="enable-background:new 0 0 621.45 546.5;" xml:space="preserve">
<style type="text/css">
	.st0{clip-path:url(#XMLID_00000075150375412298286720000008064214962317642914_);}
	.st1{opacity:0.1091;fill:#FFFFFF;}
	.st2{fill:none;stroke:#FFFFFF;stroke-width:40;stroke-miterlimit:10;}
	.st3{fill:#FFFFFF;stroke:#FFFFFF;stroke-miterlimit:10;}
	.st4{fill:url(#SVGID_1_);}
	.st5{display:none;fill:#25003A;stroke:#FFFFFF;stroke-miterlimit:10;}
	.st6{fill:url(#SVGID_00000066507968475125106790000003413720674895238060_);}
	.st7{fill:url(#SVGID_00000176724278285396744080000000933541371126745986_);}
	.st8{fill:#EC008C;}
	.st9{fill:#4DB748;stroke:#000000;stroke-miterlimit:10;}
	.st10{fill:#006838;stroke:#92278F;stroke-width:4;stroke-miterlimit:10;}
	.st11{fill:url(#SVGID_00000027579558756796702010000000110899425232294030_);stroke:#FFFFFF;stroke-miterlimit:10;}
	.st12{fill:#FFFFFF;}
	.st13{fill:none;}
	.st14{fill:#FFFFFF;stroke:#662D91;stroke-width:0.25;stroke-miterlimit:10;}
	.st15{font-family:'Corbel';}
	.st16{font-size:48px;}
	.st17{letter-spacing:3;}
</style>
<g id="Layer_2">
	<g>
		<defs>
			
				<rect id="XMLID_00000048481137704908352340000001089389392899050897_" x="49.39" y="-30.5" transform="matrix(6.123234e-17 -1 1 6.123234e-17 40.3728 583.0762)" width="524.67" height="603.7"/>
		</defs>
		<use xlink:href="#XMLID_00000048481137704908352340000001089389392899050897_"  style="overflow:visible;fill:#25003A;"/>
		<clipPath id="XMLID_00000098916053747354238550000002720778107990211730_">
			<use xlink:href="#XMLID_00000048481137704908352340000001089389392899050897_"  style="overflow:visible;"/>
		</clipPath>
		<g style="clip-path:url(#XMLID_00000098916053747354238550000002720778107990211730_);">
			<g>
				<g>
					<path class="st1" d="M-153.17,1564.34c-26.85,19.21-54.61,36.95-83.3,53.23c60.36-34.12,120.72-68.24,181.08-102.36
						c-75.27,38.19-150.54,76.39-225.81,114.58c59.62-28.62,119.24-57.23,178.86-85.85c-11.18,5.34-22.66,9.96-34.43,13.84
						c61.49-20.1,122.98-40.19,184.47-60.29c-67.58,21.92-135.15,43.83-202.73,65.74c61.41-17.9,122.81-35.81,184.22-53.71
						c-74.33,20.62-148.66,41.24-223,61.86c61.04-13.46,122.08-26.92,183.12-40.38c-82.36,15.21-164.72,30.43-247.08,45.64
						c59.93-6.91,119.85-13.82,179.78-20.74c-83.26,5.66-166.51,11.33-249.77,16.99c58.12-0.75,116.25-1.51,174.37-2.26
						c-102.86-6.68-205.72-7.72-308.56-3.12c-68.97-1.79-137.03,5.68-204.19,22.4c-19.33,14.51-38.65,29.01-57.98,43.52
						c-22.72,31.29-26.3,62.82-10.73,94.58c0.86,25.91,13.4,43.96,37.63,54.15c38.72,37.67,87.77,52.76,147.15,45.27
						c298.96-79.06,597.92-158.12,896.88-237.18c17.18-17.23,35.16-33.59,53.93-49.08c-39.66,29.44-79.33,58.87-118.99,88.31
						c17.48-12.76,34.95-25.53,52.43-38.29c76.4-32.83,128.89-86.46,157.49-160.87c7.15-51.88-13.05-88.81-60.59-110.78
						c-78.09-16.07-151.56-0.8-220.42,45.81C84.84,1423.36-36.44,1489.69-153.17,1564.34z"/>
					<path class="st1" d="M-676.34,1432.91c-29.99-151.01-59.98-302.01-89.96-453.01c-130.31,34.95-242.88,98.45-337.72,190.51
						c-37.89,58.26-23.7,97.89,42.54,118.88c-20.11-15.16-40.22-30.31-60.32-45.47c6.74,6.08,13.48,12.17,20.22,18.25
						c6.83,5.86,13.66,11.73,20.49,17.59c23.42,19.78,47.86,38.32,72.85,56.05c20.04,14.21,40.48,27.79,61.31,40.81
						c20.81,13.01,41.96,25.4,63.28,37.56c64.35,38.73,129.28,33.73,194.79-14.99c175.62-107.21,343.7-225.29,504.24-354.22
						c165.09-123.06,321.55-256.14,469.4-399.25c63.6-51.19,84.73-112.79,63.38-184.8c-9.91-5.11-19.83-10.22-29.74-15.33
						c-25.82-16.78-52.95-24.23-81.4-22.36c-6.89-0.25-13.69,0.39-20.41,1.91c-11.34,1.17-22.2,4.3-32.55,9.39
						c-39.19,15.28-78.39,30.57-117.58,45.85C0.89,529.39-64.68,578.5-130.25,627.62c-88.42,75.92-176.83,151.83-265.25,227.75
						c-120.7,101.88-233.99,211.19-339.88,327.94c-51.46,38.78-89.27,87.27-113.43,145.47c-28.89,27.52-36.54,58.37-22.94,92.55
						c-5.55,33.2,8.49,48.88,42.09,47.05C-776.99,1491.55-725.88,1479.73-676.34,1432.91z"/>
					<path class="st1" d="M-498.91,51.28c-47.99,71.34-98.46,140.89-151.41,208.64c-35.99,47.36-74.28,92.76-114.87,136.21
						c56.26-51.12,112.53-102.25,168.79-153.37c-150.79,93.93-301.57,187.86-452.36,281.79c139.7-23.41,279.4-46.81,419.11-70.22
						c-17.58-22.22-35.16-44.45-52.74-66.67c-46.51-36.01-98.82-43.46-156.94-22.35c-91.57,16.94-180.46,42.99-266.69,78.14
						c-60.33,13.59-100.35,48.09-120.07,103.51c-8.21,46.26,3.63,86.65,35.5,121.17c10.49,10.17,21.32,19.96,32.49,29.36
						c7.11,6.36,14.44,12.45,22.01,18.27c10.81,8.88,21.97,17.31,33.47,25.28c7.53,5.03,15.07,10.07,22.6,15.1
						c7.59,4.55,15.18,9.09,22.76,13.64c11.1,6.47,22.58,12.17,34.44,17.08c14.19,6.84,29.06,11.8,44.62,14.88
						c30.09,11.37,61.39,16.28,93.9,14.74c8.6-1.39,17.19-2.78,25.79-4.18c12.62-5.82,25.23-11.64,37.85-17.46
						c34.09-19.83,66.85-41.61,98.27-65.33c16.92-11.29,32.62-24.1,47.1-38.42c41.93-36.22,80.75-75.65,116.46-118.31
						c18.43-20.7,36.85-41.4,55.28-62.1c21.77-27,43.53-54,65.3-81c53.57-68.47,104.63-138.76,153.18-210.88
						c34.68-39.2,57.79-84.08,69.32-134.64c-5.57-40.99-25.64-73.41-60.19-97.26c-31.43-27.84-67.71-39.56-108.83-35.16
						C-431.1-24.95-469.15,8.23-498.91,51.28z"/>
					<path class="st1" d="M-173.76,983.49c36.79-41.88,73.58-83.76,110.37-125.64c192.91-125.65,385.82-251.31,578.74-376.96
						c-208.3,124.29-416.6,248.59-624.91,372.88C93.66,747.48,296.87,641.19,500.08,534.91C283.87,638.3,67.65,741.69-148.56,845.09
						c104.08-47.16,208.16-94.32,312.24-141.47c-108.57,45.87-217.14,91.73-325.71,137.6c105.15-44.36,210.3-88.72,315.45-133.08
						c-7.07,2.93-14.25,5.57-21.54,7.91c108.6-34.15,217.21-68.31,325.81-102.46C345.34,648.85,233,684.12,120.66,719.39
						c109.35-31.21,218.7-62.43,328.04-93.64c-113.17,32.19-226.35,64.38-339.52,96.58C0.44,755.15-108.3,787.97-217.05,820.79
						c-104.53,16.15-195.75,56.65-273.67,121.52c-37.34,12.07-57.19,36.19-59.55,72.35c-19,27.15-13.34,47.42,16.97,60.81
						c20.75,29.72,50.22,40.07,88.42,31.05c60.49,11.38,120.23,6.04,179.23-15.99c151.55-25.27,300.83-60.79,447.86-106.55
						c244.29-164.11,488.59-328.23,732.88-492.34c1.09-7.75,2.18-15.49,3.26-23.24c1.75-14.61,2.99-29.37,3.45-44.08
						c0.06-6.72,0.11-13.44,0.17-20.16c-0.43-9.05-0.74-18.1-0.92-27.16c-0.65-5.95-0.27-11.82,1.16-17.64
						c1.01-8.49,2.81-16.82,5.39-25c14.02-64.57-11.99-97.65-78.05-99.26c-81.92,13.38-154.36,47.06-217.31,101.03
						C502.7,417.16,379.15,506.76,261.61,604.96C107.75,721.21-37.37,847.39-173.76,983.49z"/>
					<path class="st1" d="M-13.57,27.96c-69.8,79.94-141.55,158.08-215.26,234.42c-46.01,47.98-94.4,93.4-145.19,136.24
						c24.76-20.08,49.52-40.16,74.29-60.25c-56.48,41.63-112.97,83.26-169.45,124.9c25.3-18.26,50.6-36.52,75.9-54.79
						c-12.49,6.47-24.99,12.94-37.48,19.41c21.21-7.76,42.42-15.53,63.63-23.29c-32.44,11.78-64.88,23.57-97.32,35.35
						c21.21-6.95,42.43-13.9,63.64-20.85c-19.25,6.96-39.09,11-59.51,12.13c-13.26,0.93-26.34-0.01-39.23-2.82
						c-12.45-1.56-24.52-4.71-36.21-9.44c-15.34-5.85-29.96-13.15-43.86-21.89c15.22,9.15,30.43,18.31,45.65,27.46
						c-22.03-13.78-44.05-27.55-66.08-41.33c14.99,9.54,29.99,19.08,44.98,28.63c-13.1-8.33-25.3-17.81-36.59-28.46
						c-29.13-33.88-65.64-43.69-109.52-29.43c-58.99,11.69-114.69,32.27-167.1,61.76c-42.6,17.71-63.95,48.9-64.05,93.58
						c2.03,44.12,16.63,83.6,43.78,118.44c13.17,11.55,26.81,22.5,40.93,32.85c9.13,7.27,18.6,14.05,28.41,20.36
						c19.33,13.51,39.35,25.93,60.07,37.25c10.15,5.53,20.3,11.06,30.45,16.59c10.49,4.83,20.98,9.66,31.47,14.5
						c16.04,7.03,32.55,12.59,49.54,16.68c11.28,3.68,22.81,6.2,34.6,7.55c18,3.68,36.22,5.29,54.66,4.84c13-0.95,26-1.9,39.01-2.85
						c28.63-8.01,57.26-16.02,85.89-24.03c31.17-9.66,60.64-22.86,88.43-39.59c19.25-9.49,37.22-21,53.92-34.53
						c36.16-24.84,70.66-51.86,103.5-81.05c23.39-20.8,46.79-41.61,70.18-62.41c27.62-27.18,55.24-54.36,82.86-81.53
						c75-77.63,148.02-157.1,219.06-238.39c14.65-15.67,18.55-33.68,11.7-54.03c-18.74-31.22-41.95-58.78-69.64-82.67
						c-25.57-26.14-54.52-47.6-86.85-64.35C18.89,7.35,1.16,12.36-13.57,27.96z"/>
					<path class="st1" d="M-1069.56,842.74c-137.11,16.55-274.23,33.09-411.34,49.64c-19.21,22.08-38.42,44.16-57.63,66.24
						c-18.41,50.69-4.89,90.54,40.55,119.58c80.41,27.81,160.97,23.58,241.67-12.71c144.64-39.03,286.24-87.04,424.79-144.04
						c-214.53,58.61-429.06,117.23-643.6,175.84c3.85,3.03,7.71,6.06,11.56,9.08c11.37,9.12,23.01,17.89,34.92,26.29
						c30.24,21.54,61.81,41.37,94.84,58.39c15.47,8.02,31.27,15.32,47.41,21.89c15.15,6.19,30.62,11.45,46.4,15.78
						c7.49,1.72,14.98,3.44,22.46,5.16c20.33,4.03,40.84,4.59,61.52,1.7c32.22-8.61,64.11-18.26,95.68-28.95
						c93.31-75.47,177.34-160.3,252.1-254.49c49.3-60.65,96.86-122.67,142.68-186.06c15.07-22.67,29.41-45.81,43.01-69.39
						c23.19-40.3,46.38-80.6,69.57-120.9c2.37-26.53,4.75-53.06,7.12-79.59c-14.34-49.4-47.18-75.73-98.51-78.98
						c-25.38,8.09-50.76,16.17-76.13,24.26c-34.29,31.4-68.59,62.8-102.88,94.19C-912.84,632.09-994.9,734.45-1069.56,842.74z"/>
					<path class="st1" d="M-542.66,1602.57c-52.92,45.11-105.84,90.22-158.77,135.33c38.51-32.42,77.02-64.84,115.54-97.25
						c-6.6,5.37-13.21,10.74-19.81,16.12c59.43-39.29,118.85-78.58,178.28-117.86c-74.55,42.7-149.09,85.4-223.64,128.1
						c123.87-62.08,247.75-124.16,371.62-186.25c-138.87,59.96-277.75,119.92-416.62,179.88
						c127.02-49.13,254.04-98.26,381.06-147.39c-74.66,24.13-149.31,48.26-223.97,72.39c64.89-17.58,129.78-35.17,194.67-52.75
						c-76.33,18.51-152.66,37.02-228.99,55.53c65.01-12.73,130.01-25.46,195.02-38.19c-77.5,12.73-155.01,25.46-232.51,38.19
						c64.69-7.91,129.37-15.83,194.06-23.74c-78.13,6.89-156.26,13.77-234.39,20.66c63.94-3.22,127.89-6.44,191.83-9.66
						c-109.71-1.74-219.26,1.06-328.66,8.38c-76.28,0.35-151.47,9.95-225.59,28.8c-43.13,12.06-67.46,37.75-72.98,77.06
						c-17.14,31.87-13.06,63.37,12.24,94.5c21.48,14.37,42.95,28.75,64.43,43.12c347.45,69.53,682.58-15.05,1005.39-253.76
						c4.6-5.93,9.2-11.85,13.8-17.78c12.39-11.6,23.06-24.6,32.02-38.98c37.9-42.81,44.55-89.1,19.94-138.88
						c-23.25-35.67-54.24-49.85-92.99-42.52c-61.88-6.92-118.84,11.48-170.86,55.18C-320.92,1453.33-434.3,1523.92-542.66,1602.57z"
						/>
					<path class="st1" d="M500.58,635.36c-43.28,35.45-86.56,70.9-129.83,106.34c44.18-34.56,88.37-69.12,132.56-103.68
						c-108.63,83.88-217.26,167.75-325.89,251.63c50.5-37.56,101-75.11,151.5-112.67c-74.2,53.55-148.41,107.1-222.61,160.64
						c50.64-36.38,101.28-72.75,151.92-109.13c-69.78,47.87-139.55,95.75-209.33,143.62c51.5-35.31,103-70.62,154.5-105.93
						c-62.53,40.8-125.05,81.6-187.58,122.39c52.67-34.04,105.34-68.08,158.01-102.12C114.69,922.54,55.56,958.6-3.57,994.67
						c52.81-32.02,105.62-64.05,158.43-96.07c-5.26,2.9-10.51,5.81-15.77,8.71c55.17-25.76,110.34-51.52,165.52-77.28
						c-60.47,28.19-120.94,56.38-181.41,84.57c55.48-23.76,110.96-47.52,166.44-71.28c-72.09,28.57-144.18,57.13-216.27,85.7
						c56.59-17.84,113.19-35.68,169.78-53.53c-73.75,18.92-147.49,37.85-221.24,56.77c57.4-12.01,114.79-24.03,172.19-36.04
						C118.89,906,43.67,915.75-31.55,925.51c-79.36,7.59-156.06,25.25-230.11,52.99c-48,6.23-84.81,30.34-110.43,72.33
						c-3.31,21.79-6.63,43.58-9.94,65.37c10.61,51.31,41.9,82.75,93.88,94.32c411.29-32.45,758.49-172.73,1041.61-420.85
						c37.2-30.58,73-62.72,107.42-96.43c49.49-31.83,73.06-75.72,70.73-131.69c-8.81-45.52-33.39-79.68-73.75-102.49
						c-52.32-19.99-101.43-11.58-147.33,25.23C635,526.95,565.02,577.3,500.58,635.36z"/>
					<path class="st1" d="M-807.32,474.13c-235.6-14.06-410.66,60.85-525.2,224.74c-18.15,52.8-2.31,91.79,47.52,116.99
						c89.03,20.76,175.54,9.22,259.53-34.63c154.31-52.43,305.04-113.66,452.21-183.67c50.12-28.04,100.23-56.08,150.35-84.11
						c-280.11,106.77-560.21,213.54-840.32,320.32c14.39,11.48,29.14,22.5,44.23,33.06c25.3,17.66,51.54,33.81,78.91,48.05
						c25.48,13.26,51.74,24.94,79.42,32.87c14.53,4.23,29.3,7.33,44.31,9.3c13.74,1.53,27.51,1.87,41.31,1.01
						c35.08-1.3,68.43-11.05,100.05-29.25c98.89-79.62,188.57-168.69,269.05-267.19c54.21-61.77,105.02-126.34,152.43-193.7
						c32.99-47.85,64.56-96.63,94.69-146.32c55.55-58.23,81.06-125.81,76.53-202.72c-14.51-49.54-47.54-75.62-99.1-78.25
						c-75.87,13.42-135.69,53.9-179.46,121.44C-650.47,260.19-732.62,364.22-807.32,474.13z"/>
					<path class="st1" d="M123.65,111.62c-139.4,90.03-278.81,180.06-418.21,270.1c56.82-62.83,113.64-125.66,170.47-188.49
						c-88.93,97.87-177.87,195.74-266.8,293.61C-215.51,320.51-40.12,154.19,135.27-12.13
						c-368.61,120.51-679.47,313.74-932.58,579.7c-39.15,24.55-53.81,60.56-43.98,108.02c17.42,15.88,34.84,31.76,52.25,47.64
						c69.16,16.05,136.24,10.05,201.24-18.03c123.96-29.76,244.85-69.54,362.66-119.33c87.12-35.78,174.23-71.56,261.35-107.34
						c-775.11,19.29-1039.54,108.21-793.29,266.76c10.54,7.12,21.29,13.9,32.27,20.33c7.22,4.12,14.45,8.23,21.67,12.35
						c41.95,37.67,87.72,48.37,137.3,32.1c81.17-5.98,154.02-37.73,218.55-95.25c75.77-48.35,151.55-96.7,227.32-145.04
						c103.65-64.6,200.85-137.45,291.6-218.55c57.98-35.67,98.98-85.47,123.01-149.4c-3.39-23.11-6.78-46.22-10.18-69.32
						C238.06,88.64,184.45,81.68,123.65,111.62z"/>
					<path class="st1" d="M223.19,1186.62c-28.09,19.5-56.18,38.99-84.27,58.49c58.53-37.52,117.06-75.04,175.59-112.56
						c-95.88,60.39-191.76,120.78-287.64,181.17c59.56-35.62,119.11-71.25,178.67-106.87c-78.45,41.76-156.89,83.52-235.34,125.28
						c59.32-29.74,118.63-59.48,177.95-89.21c-65.37,30.52-130.75,61.04-196.12,91.56c59.52-27.72,119.04-55.44,178.56-83.16
						c-6.05,2.46-12.1,4.91-18.15,7.37c61.46-21.24,122.92-42.48,184.38-63.72c-67.63,23.32-135.26,46.63-202.9,69.95
						c61.51-19.1,123.03-38.2,184.54-57.3c-67.81,20.81-135.63,41.61-203.44,62.42c61.52-16.95,123.04-33.9,184.57-50.85
						c-81.37,19.96-162.74,39.91-244.11,59.87c61.24-10.59,122.48-21.18,183.72-31.77c-75.26,10.84-150.52,21.69-225.77,32.53
						c60.77-6.5,121.54-12.99,182.32-19.49c-105.67,3.63-210.83,12.6-315.47,26.91c-72.93,5.03-144.14,19.22-213.64,42.55
						c-19.04,16.36-38.09,32.71-57.13,49.07c-21.04,33.4-21.83,65.14-2.37,95.21c3.84,26.28,18.8,43,44.9,50.17
						c45.44,34.11,98.71,44.27,159.79,30.48c269.37-84.7,538.73-169.39,808.1-254.09c17.36-17.65,35-35.01,52.92-52.09
						c-39.08,29.73-78.16,59.46-117.24,89.19c63.14-46.53,125.94-93.52,188.4-140.95c73.69-35.56,122.57-90.64,146.63-165.25
						c4.35-51.81-17.42-87.83-65.32-108.06c-77.24-13.38-148.73,4.29-214.47,53.01C450.05,1038.42,334.16,1108.46,223.19,1186.62z"
						/>
					<path class="st1" d="M-1170.24,1421.68c-0.77-34.28-1.53-68.55-2.3-102.83c82.58-21.45,165.17-42.9,247.75-64.34
						c141.26-37.09,277.93-86.55,410.01-148.38c59.33-28.17,86.32-73.24,80.95-135.22c-28.59-55.25-75.48-78.93-140.69-71.03
						c-282.89,149.74-565.77,299.49-848.66,449.23c7.72,6.17,15.44,12.34,23.17,18.52c15.36,11.95,31.03,23.47,47.01,34.56
						c26.86,18.64,54.57,35.93,83.17,51.78c26.16,14.5,52.95,27.89,80.74,39.02c19.82,8.15,40.2,14.62,61.14,19.41
						c10.12,1.91,20.3,3.33,30.54,4.26c89.56-14.46,164.48-57.79,224.76-130c91.84-79.12,178.67-163.31,260.5-252.55
						c70.04-67.85,133.03-141.8,188.97-221.86c35.99-52.36,36.68-103.37,2.08-153.02c-1.5-2.41-3.01-4.81-4.51-7.22
						c8.66,21.22,17.32,42.43,25.99,63.65c-0.24-2.96-0.48-5.92-0.72-8.89c-5.23-55.15-35.49-84.4-90.79-87.75
						c-88.59,15.94-161.97,60.41-220.15,133.43c-117.86,108.29-228.9,223.18-333.12,344.66
						C-1115.38,1257.75-1157.33,1332.6-1170.24,1421.68z"/>
				</g>
			</g>
		</g>
		
			<use xlink:href="#XMLID_00000048481137704908352340000001089389392899050897_"  style="overflow:visible;fill:none;stroke:#FFFFFF;stroke-width:16;stroke-miterlimit:10;"/>
	</g>
	<path class="st2" d="M-246.52,125.59"/>
	<circle class="st3" cx="20.48" cy="94.62" r="2.13"/>
	
		<radialGradient id="SVGID_1_" cx="199.2954" cy="183.0019" r="265.5149" gradientTransform="matrix(1.0355 0 0 1.0629 87.4866 78.4874)" gradientUnits="userSpaceOnUse">
		<stop  offset="0" style="stop-color:#FBB040"/>
		<stop  offset="0.6972" style="stop-color:#7A8EA6;stop-opacity:0.3028"/>
		<stop  offset="1" style="stop-color:#2484C6;stop-opacity:0"/>
	</radialGradient>
	<ellipse class="st4" cx="293.85" cy="273" rx="283.17" ry="273.5"/>
</g>
<g id="Layer_1">
	
		<rect x="-17.04" y="-90" transform="matrix(6.123234e-17 -1 1 6.123234e-17 -17.0442 594.9558)" class="st5" width="612" height="792"/>
	
		<linearGradient id="SVGID_00000171686958099462397410000014552433116049113745_" gradientUnits="userSpaceOnUse" x1="119.9558" y1="306" x2="517.9558" y2="306">
		<stop  offset="0" style="stop-color:#F15A29"/>
		<stop  offset="2.026080e-03" style="stop-color:#F26428"/>
		<stop  offset="0.0104" style="stop-color:#F58325"/>
		<stop  offset="0.019" style="stop-color:#F79B21"/>
		<stop  offset="0.0277" style="stop-color:#FAAE1C"/>
		<stop  offset="0.0365" style="stop-color:#FCBC15"/>
		<stop  offset="0.0456" style="stop-color:#FDC40F"/>
		<stop  offset="0.0553" style="stop-color:#FDC70C"/>
		<stop  offset="0.2915" style="stop-color:#F3903F"/>
		<stop  offset="0.8719" style="stop-color:#6C435B"/>
		<stop  offset="1" style="stop-color:#6C004B"/>
	</linearGradient>
	<circle style="fill:url(#SVGID_00000171686958099462397410000014552433116049113745_);" cx="318.96" cy="306" r="199"/>
	
		<linearGradient id="SVGID_00000106837328433499564400000013643986444398010773_" gradientUnits="userSpaceOnUse" x1="119.9558" y1="297.5" x2="494.9558" y2="297.5">
		<stop  offset="0" style="stop-color:#FFF33B"/>
		<stop  offset="0.0117" style="stop-color:#FFE029"/>
		<stop  offset="0.0256" style="stop-color:#FFD217"/>
		<stop  offset="0.04" style="stop-color:#FEC90E"/>
		<stop  offset="0.0553" style="stop-color:#FDC70C"/>
		<stop  offset="0.3492" style="stop-color:#F3903F"/>
		<stop  offset="0.8067" style="stop-color:#EA4866"/>
		<stop  offset="1" style="stop-color:#DE1078"/>
	</linearGradient>
	
		<ellipse style="fill:url(#SVGID_00000106837328433499564400000013643986444398010773_);" cx="307.46" cy="297.5" rx="187.5" ry="184.5"/>
	<path class="st8" d="M327.76,66.19"/>
	<path class="st8" d="M323.04,67.85"/>
	<path class="st8" d="M324.34,65.32l-2.99,0.76c0.3-0.37,0.61-0.72,0.94-1.04C323.06,65.14,323.74,65.24,324.34,65.32z"/>
	<path class="st8" d="M337.97,50.62"/>
	<path class="st8" d="M335.08,74.84l-2.21-0.83v-0.23c0.73-0.06,1.45-0.1,2.16-0.11C335.06,74.05,335.08,74.44,335.08,74.84z"/>
	<path class="st8" d="M324.34,65.32l-2.99,0.76c0.3-0.37,0.61-0.72,0.94-1.04C323.06,65.14,323.74,65.24,324.34,65.32z"/>
	<path class="st8" d="M330.81,74.11l0.36,14.18c-0.23,0.28-3.81,4.48-10.24,3.14c-2.42-0.51-5.82-3.05-12.63-8.12
		c-2.01-1.5-4.31-3.3-5.26-5.38c-0.6-0.51-0.99-1.05-1.1-1.63c-0.33-1.77,1.94-4.07,6.26-5.76c-0.02-0.17,0.01-0.33,0.09-0.46
		c0.27-0.46,1.15-0.72,3.12-0.57c1.61-0.42,3.41-0.76,5.38-0.98l-0.75,1.69C319.44,70.91,324.21,72.13,330.81,74.11z"/>
	<path class="st8" d="M333.06,86.85l-0.19-12.84l2.21,0.83c0-0.4-0.02-0.79-0.05-1.17c4.05-0.09,7.61,0.6,8.71,2.23
		C345.39,78.35,341.79,83.44,333.06,86.85z"/>
	<path class="st8" d="M322.29,65.04c-0.33,0.32-0.64,0.67-0.94,1.04l-18.38,4.68c-2.25-5.97-0.43-7.57,0.16-7.98
		c1.56-1.08,3.93-0.33,10.85,0.92C317.27,64.29,320.1,64.73,322.29,65.04z"/>
	<path class="st8" d="M332.87,73.78v0.23l-13.39-5.06c0.53-1.03,1.16-2.01,1.87-2.87l2.99-0.76c-0.6-0.08-1.28-0.18-2.05-0.28
		c1.44-1.43,3.09-2.34,4.72-2.33c3.46,0.04,7.57,4.26,8.02,10.96C334.32,73.68,333.6,73.72,332.87,73.78z"/>
	<path class="st8" d="M335.08,74.84l-2.21-0.83v-0.23c0.73-0.06,1.45-0.1,2.16-0.11C335.06,74.05,335.08,74.44,335.08,74.84z"/>
	<line class="st9" x1="320.93" y1="91.43" x2="319.47" y2="119.9"/>
	<line class="st10" x1="319.47" y1="119.9" x2="320.93" y2="91.43"/>
	
		<linearGradient id="SVGID_00000063594716628062091060000009449256451662940818_" gradientUnits="userSpaceOnUse" x1="289.2383" y1="76.3426" x2="349.7133" y2="76.3426">
		<stop  offset="1.291334e-07" style="stop-color:#FEF382"/>
		<stop  offset="2.652297e-03" style="stop-color:#FBF083;stop-opacity:0.9973"/>
		<stop  offset="0.0485" style="stop-color:#D2D498;stop-opacity:0.9515"/>
		<stop  offset="0.0981" style="stop-color:#AEBEA7;stop-opacity:0.9019"/>
		<stop  offset="0.1539" style="stop-color:#8FACB1;stop-opacity:0.8461"/>
		<stop  offset="0.2155" style="stop-color:#759EB8;stop-opacity:0.7845"/>
		<stop  offset="0.2853" style="stop-color:#5D94BD;stop-opacity:0.7147"/>
		<stop  offset="0.3666" style="stop-color:#488CC0;stop-opacity:0.6334"/>
		<stop  offset="0.4672" style="stop-color:#3687C3;stop-opacity:0.5328"/>
		<stop  offset="0.6083" style="stop-color:#2984C5;stop-opacity:0.3917"/>
		<stop  offset="1" style="stop-color:#2484C6;stop-opacity:0"/>
	</linearGradient>
	<path style="fill:url(#SVGID_00000063594716628062091060000009449256451662940818_);stroke:#FFFFFF;stroke-miterlimit:10;" d="
		M349.48,62.55h0.24v50.9c0,3.67-13.54,6.64-30.24,6.64c-16.69,0-30.23-2.97-30.23-6.64v-50.9h0.24c-0.15-1.07-0.24-2.17-0.24-3.29
		c0-14.73,13.54-26.68,30.24-26.68c16.69,0,30.23,11.95,30.23,26.68C349.71,60.38,349.63,61.48,349.48,62.55z"/>
	<circle class="st12" cx="28.24" cy="491.2" r="1.53"/>
	<circle class="st12" cx="602.05" cy="452.77" r="3.23"/>
	<circle class="st12" cx="567.36" cy="76.34" r="4.6"/>
	<circle class="st12" cx="582.15" cy="256" r="3.74"/>
	<circle class="st12" cx="440.9" cy="482" r="4.66"/>
	<circle class="st12" cx="188.48" cy="128.86" r="3.26"/>
	<circle class="st12" cx="414.98" cy="13.99" r="1.19"/>
	<circle class="st12" cx="75.97" cy="293.08" r="2.21"/>
	<rect x="191.74" y="240.06" class="st13" width="171.93" height="211.46"/>
	<text transform="matrix(1 0 0 1 191.7438 310.7532)"><tspan x="0" y="0" class="st14 st15 st16 st17">The </tspan><tspan x="0" y="52" class="st14 st15 st16 st17">Little </tspan><tspan x="0" y="104" class="st14 st15 st16 st17">Prince</tspan></text>
</g>
</svg>
